<svg width="190" height="118" viewBox="0 0 190 118" fill="none" xmlns="http://www.w3.org/2000/svg">
<rect x="0.5" y="0.000244141" width="116" height="100" rx="20" fill="#F9FAFC"/>
<path d="M189.5 112.877C189.5 115.702 150.774 118 103.016 118C55.2576 118 16.5312 115.702 16.5312 112.877C16.5312 110.052 55.2576 107.754 103.016 107.754C150.774 107.754 189.5 110.04 189.5 112.877Z" fill="#E4EAF8"/>
<path d="M145.428 71.4587L133.565 37.6852C133.565 37.6852 133.522 37.5665 133.457 37.383L133.025 36.1525C132.884 35.8395 132.69 35.5697 132.463 35.343C130.669 32.31 126.326 27.4312 117.002 27.5716C117.002 27.5716 115.176 27.3881 115.176 30.6694C115.176 33.9506 116.116 34.5443 117.002 34.5983C117.002 34.5983 125.278 34.5983 127.352 41.1176L135.099 69.3755C135.585 70.7679 135.358 72.9374 134.58 74.1895L124.867 88.6206C124.09 89.8727 122.253 90.9089 120.773 90.9089H114.279C82.4505 90.2397 107.462 60.4599 107.462 60.4599C108.499 59.4453 108.229 58.6142 106.868 58.6142H73.7208C50.654 58.8409 48.3527 99.2308 48.3527 99.2308C48.2663 100.796 49.3035 102.07 50.654 102.07H57.655C59.0164 102.07 60.1292 100.785 60.1292 99.22V97.7953C60.1292 96.2302 61.242 94.9457 62.6033 94.9457H84.0171C85.3784 94.9457 86.4912 96.2302 86.4912 97.7953V99.22C86.4912 100.785 87.6041 102.07 88.9654 102.07H98.4082H110.174H127.039C128.519 102.07 130.345 101.033 131.091 99.7705L145.125 76.2187C145.881 74.9558 146.022 72.8079 145.428 71.4587Z" fill="#F23C3C"/>
<path d="M85.649 99.8372C85.649 106.626 80.1389 112.131 73.3431 112.131C66.5473 112.131 61.0372 106.626 61.0372 99.8372C61.0372 93.0479 66.5473 87.5432 73.3431 87.5432C80.1389 87.5539 85.649 93.0479 85.649 99.8372Z" fill="#262626"/>
<path d="M79.4903 99.8362C79.4903 103.225 76.7352 105.978 73.3427 105.978C69.9502 105.978 67.1952 103.225 67.1952 99.8362C67.1952 96.4362 69.9502 93.6838 73.3427 93.6838C76.7352 93.6838 79.4903 96.447 79.4903 99.8362Z" fill="#FDF3C8"/>
<path d="M159.917 99.8372C159.917 106.626 154.406 112.131 147.611 112.131C140.815 112.131 135.305 106.626 135.305 99.8372C135.305 93.0479 140.815 87.5432 147.611 87.5432C154.417 87.5539 159.917 93.0479 159.917 99.8372Z" fill="#262626"/>
<path d="M153.769 99.8362C153.769 103.225 151.014 105.978 147.621 105.978C144.229 105.978 141.474 103.225 141.474 99.8362C141.474 96.4362 144.229 93.6838 147.621 93.6838C151.014 93.6946 153.769 96.447 153.769 99.8362Z" fill="#FDF3C8"/>
<path d="M108.532 58.2708C108.532 59.7495 107.138 60.9476 105.442 60.9476H70.2855C68.5784 60.9476 67.1847 59.7387 67.1847 58.2708V53.5755C67.1847 52.1076 68.5784 50.8987 70.2855 50.8987H105.442C107.138 50.8987 108.532 52.1076 108.532 53.5755V58.2708Z" fill="#282A33"/>
<path d="M126.143 102.071H131.285C132.766 102.071 134.257 100.819 134.613 99.2861C134.613 99.2861 137.098 88.309 148.507 88.5464C156.34 88.7083 160.586 96.9439 160.586 102.071H163.266C164.746 102.071 165.956 100.776 165.967 99.1998C165.967 99.1998 167.631 73.3381 145.655 73.3381C145.666 73.3489 131.599 76.5978 126.143 102.071Z" fill="#E10101"/>
<path d="M99.2942 99.8377C99.2942 86.9932 88.879 76.5881 76.0329 76.5881C63.1868 76.5881 52.7609 86.9932 52.7609 99.8377C52.7609 100.593 52.8041 101.338 52.8689 102.072H57.6551C59.0164 102.072 60.1293 100.863 60.1293 99.3952V98.0568C60.1293 96.578 61.2421 95.3799 62.6034 95.3799H84.0172C85.3785 95.3799 86.4913 96.5888 86.4913 98.0568V99.3952C86.4913 100.874 87.6041 102.072 88.9655 102.072H99.1862C99.251 101.338 99.2942 100.593 99.2942 99.8377Z" fill="#E10101"/>
<path d="M141.225 24.7333C140.706 24.6577 140.188 24.6038 139.647 24.6038C133.986 24.6038 129.383 29.1911 129.383 34.8578C129.383 40.5244 133.975 45.1118 139.647 45.1118C140.188 45.1118 140.706 45.0578 141.225 44.9822V24.7333Z" fill="#282A33"/>
<path d="M137.065 24.9492V44.7664C137.897 44.9822 138.751 45.1118 139.648 45.1118C140.188 45.1118 140.706 45.0578 141.225 44.9822V24.7333C140.706 24.6577 140.188 24.6038 139.648 24.6038C138.762 24.6038 137.897 24.7333 137.065 24.9492Z" fill="#E10101"/>
<path d="M107.419 24.053H69.162V52.8505H107.419V24.053Z" fill="#E10101"/>
<path d="M109.374 17.9554H67.1843V24.723H109.374V17.9554Z" fill="#D10303"/>
<path d="M94.3027 49.5808C96.3879 48.4582 92.8873 45.6303 89.2031 41.4315C85.5189 37.2328 78.1938 28.0474 77.0917 28.6626C75.9897 29.2779 77.9669 39.683 85.8539 40.7408C85.8539 40.73 92.2391 50.6817 94.3027 49.5808Z" fill="white"/>
<path d="M99.7157 29.7106C99.4889 29.5163 99.1215 29.5703 98.9054 29.8401L96.1072 33.2509L95.178 32.463L97.9763 29.0522C98.1924 28.7823 98.1816 28.4153 97.9547 28.2211C97.7278 28.0268 97.3713 28.0807 97.1444 28.3506L94.3461 31.7614L93.4169 30.9735L96.2152 27.5626C96.4313 27.3036 96.4205 26.9258 96.1936 26.7315C95.9667 26.5372 95.6102 26.5912 95.3941 26.8611L92.5958 30.2719C92.1313 30.736 91.7855 31.1785 91.5154 31.5887L91.2669 31.9017C91.1589 32.0312 91.1049 32.1931 91.1157 32.3442C90.5647 33.5855 90.8024 34.5246 91.1265 35.1074C90.0245 36.4782 86.8048 40.3532 83.1962 43.8179C78.7341 48.103 80.3872 49.6465 80.3872 49.6465C80.3872 49.6465 82.1807 51.0281 85.5299 45.7824C88.231 41.5513 91.4074 37.6332 92.531 36.2839C93.1576 36.5106 94.1084 36.5754 95.2104 35.7982C95.3617 35.7766 95.5021 35.6903 95.621 35.5608L95.8695 35.2478C96.226 34.9024 96.5826 34.4706 96.9499 33.9309L99.7482 30.5201C99.9534 30.2719 99.9426 29.9049 99.7157 29.7106Z" fill="white"/>
<path d="M63.3487 60.6876H18.3387L56.4449 66.7429C58.368 64.228 60.6585 62.1232 63.3487 60.6876Z" fill="#282A33"/>
<path d="M53.7654 70.8557H29.0564L51.2805 76.1122C52.0043 74.2989 52.8363 72.5395 53.7654 70.8557Z" fill="#282A33"/>
<path d="M49.4439 81.3674H37.2784L48.4499 85.0265C48.7416 83.8284 49.0765 82.6087 49.4439 81.3674Z" fill="#282A33"/>
</svg>
