<svg width="92" height="109" viewBox="0 0 92 109" fill="none" xmlns="http://www.w3.org/2000/svg">
<g clip-path="url(#clip0_1646_14300)">
<path d="M45.5724 71.9364C36.436 71.9364 27.2976 71.9692 18.1611 71.9261C9.71825 71.8872 2.61533 66.1027 0.892793 57.9585C-1.43325 46.9497 6.83576 36.6202 18.0486 36.5627C24.1184 36.5319 30.1862 36.5381 36.256 36.5771C37.1234 36.5832 37.3443 36.3288 37.3075 35.4916C37.24 33.9218 37.2871 32.3459 37.2891 30.7721C37.2891 30.3576 37.2727 29.9246 37.7146 29.6969C38.1442 29.4752 38.4941 29.6969 38.8439 29.9349C43.944 33.4027 49.0502 36.8643 54.1483 40.3363C55.0791 40.9703 55.0689 41.4669 54.1156 42.1174C49.0441 45.5687 43.9665 49.0119 38.8909 52.4572C38.5248 52.7055 38.1729 53.0153 37.688 52.7219C37.2646 52.4654 37.2891 52.0427 37.2891 51.6302C37.2891 49.9887 37.2707 48.3471 37.2993 46.7055C37.3096 46.1351 37.2441 45.8622 36.5465 45.8642C30.3744 45.895 24.2044 45.8376 18.0323 45.8991C13.5213 45.9443 9.96374 49.5578 9.82872 54.0659C9.69779 58.4592 13.1081 62.2881 17.5924 62.5118C21.2319 62.6923 24.8856 62.6082 28.5332 62.6164C43.6719 62.6451 58.8086 62.6472 73.9473 62.6944C81.0993 62.717 87.4903 67.0774 90.1703 73.6559C92.8645 80.2694 91.3813 88.0361 86.4367 92.9341C82.9487 96.3896 78.6873 98.0537 73.8102 98.1071C69.7882 98.1502 65.7642 98.1194 61.7402 98.1132C60.4882 98.1112 60.2508 97.867 60.2488 96.6133C60.2447 94.4936 60.2447 92.3719 60.2488 90.2522C60.2529 88.9225 60.4391 88.746 61.824 88.746C65.8808 88.744 69.9396 88.7768 73.9964 88.7358C78.1861 88.6947 81.5126 85.6455 82.114 81.3816C82.6582 77.5239 80.1357 73.6272 76.3204 72.4207C75.4325 72.1395 74.5221 72.0575 73.5975 72.0575C64.2565 72.0575 54.9155 72.0575 45.5724 72.0575C45.5724 72.0185 45.5724 71.9774 45.5724 71.9364Z" fill="#262626"/>
<path d="M72.3805 4.64679e-06C84.1314 0.00821248 93.0735 10.5594 91.263 22.2432C90.5674 26.737 88.8224 30.8204 86.5884 34.7191C82.8426 41.2526 78.078 46.9857 72.7528 52.2716C72.4664 52.5547 72.2516 52.8933 71.7831 52.4132C64.8582 45.3072 58.6677 37.6801 55.0283 28.2944C53.3344 23.9258 52.6061 19.4218 53.7231 14.7454C55.7852 6.10458 63.4937 -0.00615123 72.3805 4.64679e-06ZM72.3109 28.6925C77.5522 28.7151 81.7992 24.4799 81.8074 19.2207C81.8156 14.0108 77.6238 9.76117 72.4357 9.72423C67.1781 9.6873 62.9352 13.8753 62.8943 19.1468C62.8533 24.406 67.0594 28.67 72.3109 28.6925Z" fill="#E10101"/>
<path d="M29.8545 93.2873C29.8586 93.9439 29.3144 94.0916 28.8766 94.3276C22.9173 97.5287 16.9539 100.728 10.9925 103.927C8.05682 105.503 5.12114 107.076 2.18341 108.65C1.73948 108.888 1.28941 109.235 0.794336 108.767C0.309488 108.31 0.589759 107.825 0.786153 107.355C2.64371 102.962 4.489 98.5628 6.38134 94.184C6.6657 93.5253 6.6391 93.0102 6.36088 92.3659C4.48491 88.0178 2.6478 83.6513 0.804565 79.2888C0.610216 78.8292 0.291076 78.3408 0.763649 77.8709C1.28328 77.3538 1.77017 77.7334 2.24274 77.9858C11.1418 82.7566 20.041 87.5274 28.9401 92.3023C29.3513 92.5239 29.8504 92.6778 29.8545 93.2873Z" fill="#262626"/>
<path d="M36.1618 93.3715C36.1618 92.245 36.172 91.1164 36.1597 89.9899C36.1495 89.1383 36.5423 88.7341 37.3974 88.7423C38.9645 88.7546 40.5295 88.7505 42.0966 88.7444C42.9067 88.7403 43.2851 89.1609 43.2872 89.9427C43.2933 92.2655 43.2913 94.5883 43.2872 96.9112C43.2851 97.7032 42.878 98.1136 42.0884 98.1177C40.5213 98.1239 38.9563 98.1198 37.3892 98.1177C36.5546 98.1157 36.1413 97.7176 36.1556 96.8557C36.1781 95.6943 36.1618 94.5329 36.1618 93.3715Z" fill="#262626"/>
<path d="M48.2034 93.4314C48.2034 92.3048 48.2239 91.1783 48.1973 90.0518C48.1748 89.151 48.5553 88.7262 49.4698 88.7385C51.002 88.7591 52.5343 88.7591 54.0646 88.7385C54.9299 88.7283 55.3145 89.151 55.3145 89.982C55.3166 92.27 55.3125 94.5579 55.3166 96.8438C55.3186 97.7507 54.8563 98.1304 53.9766 98.1221C52.4791 98.1057 50.9816 98.1119 49.4841 98.1201C48.5983 98.1242 48.1727 97.7261 48.1973 96.8109C48.2259 95.6865 48.2034 94.5579 48.2034 93.4314Z" fill="#262626"/>
<path d="M72.3108 28.6931C67.0593 28.6706 62.8552 24.4066 62.8941 19.1474C62.935 13.878 67.1759 9.68792 72.4355 9.72485C77.6236 9.76179 81.8175 14.0093 81.8072 19.2213C81.799 24.4805 77.55 28.7178 72.3108 28.6931Z" fill="#FDFDFD"/>
</g>
<defs>
<clipPath id="clip0_1646_14300">
<rect width="91" height="109" fill="white" transform="translate(0.5)"/>
</clipPath>
</defs>
</svg>
