<svg width="118" height="118" viewBox="0 0 118 118" fill="none" xmlns="http://www.w3.org/2000/svg">
<rect x="0.5" y="0.189148" width="117" height="100" rx="20" fill="#F9FAFC"/>
<path d="M100.624 87.4446C100.756 89.047 101.271 90.5707 101.616 92.1302C103.007 98.42 104.457 104.699 105.852 110.989C106.35 113.231 106.339 115.531 106.502 117.811C96.2139 117.811 85.9279 117.811 75.6402 117.811C75.7169 115.789 75.6741 113.777 75.1371 111.803C75.0408 111.446 74.9373 111.144 74.5877 110.942C71.5514 109.204 68.9077 106.978 66.5387 104.415C65.067 102.621 63.6916 100.758 62.5855 98.7129C61.2119 96.171 60.0613 93.5397 59.4441 90.6994C63.9395 90.694 68.4368 90.6886 72.9322 90.6851C74.3718 90.6833 74.4699 90.5832 74.502 89.0738C74.6751 87.9287 74.816 86.7783 75.0247 85.6386C75.8293 81.2335 77.3474 77.0338 78.7531 72.8037C79.9126 69.3149 80.6137 65.7476 80.8456 62.0731C81.0418 58.9791 81.0097 55.8941 80.8385 52.8019C80.644 49.2971 80.289 45.8119 79.7931 42.341C79.4916 40.2295 79.4113 38.1431 79.9786 36.0602C80.4282 34.4078 81.2488 32.9287 82.0729 31.4478C82.7954 30.5939 83.5197 29.7401 84.2421 28.8862C84.8808 28.4039 85.4891 27.8698 86.1652 27.45C87.3354 26.7247 87.9776 27.0016 88.3077 28.3217C88.6198 29.5686 88.6448 30.8458 88.6876 32.1248C88.7358 33.5771 88.7019 35.0598 88.9963 36.4693C89.906 40.828 90.9568 45.1581 91.9415 49.5025C92.0503 49.9848 92.3179 50.2492 92.7496 50.4707C94.3159 51.2728 95.4433 52.4911 96.0605 54.1613C96.9025 56.4335 96.8651 58.8362 97.0024 61.1942C97.204 64.6651 97.2878 68.1467 97.2325 71.6265C97.2201 72.4053 97.3128 73.1592 97.493 73.9184C97.9764 75.9691 98.3725 78.043 98.8809 80.0884C99.4856 82.5322 99.8763 85.0313 100.624 87.4446Z" fill="#E10101"/>
<path d="M82.0675 31.4469C81.2451 32.9278 80.4245 34.4051 79.9732 36.0593C79.4059 38.1404 79.4862 40.2286 79.7877 42.3401C80.2836 45.811 80.6386 49.2979 80.833 52.801C81.0061 55.8931 81.0364 58.9782 80.8402 62.0721C80.6083 65.7467 79.9072 69.314 78.7477 72.8027C77.3419 77.0328 75.8238 81.2326 75.0193 85.6377C74.8124 86.7774 74.6696 87.9278 74.4966 89.0729C65.5789 89.0675 56.6611 88.9996 47.7434 89.0871C44.0846 89.1229 41.555 86.4898 41.5586 82.8885C41.5764 59.1336 41.5675 35.3804 41.5675 11.6255C41.5675 8.10283 44.0454 5.48761 47.5846 5.47153C57.0679 5.42866 66.5493 5.42866 76.0325 5.46974C79.5593 5.48582 82.0532 8.11176 82.0568 11.6219C82.0621 18.2297 82.0639 24.8374 82.0675 31.4469ZM59.0605 39.7356C59.1104 39.5641 59.0337 39.523 58.8821 39.5569L58.8803 39.5551C58.9124 39.3962 58.8161 39.3676 58.6912 39.3676C58.6323 39.3712 58.5753 39.3765 58.5164 39.3872C58.1204 39.1675 57.7868 38.8138 57.2891 38.8102C56.8788 38.4494 56.4703 38.0814 55.8619 38.1511C53.5536 37.2954 51.3772 37.5401 49.3436 38.9442C49.2312 39.0139 49.1206 39.0835 49.0082 39.1532C48.7798 39.1997 48.5872 39.2979 48.4712 39.5123C48.4052 39.5641 48.3392 39.6177 48.2714 39.6695C48.1697 39.7463 48.0681 39.8231 47.9682 39.8999C47.3777 40.2125 46.9763 40.7056 46.6552 41.2754C45.3655 42.8795 45.7312 44.0782 47.681 44.6552C48.9172 45.0214 50.1909 45.1071 51.4646 45.1714C54.3492 45.3179 57.2231 45.2375 60.0488 44.5748C61.1173 44.3247 61.4188 43.8156 61.1066 42.8206C60.8604 42.0382 60.5661 41.2415 59.7972 40.7752C59.6884 40.4376 59.7027 40.0214 59.2407 39.9142L59.2389 39.9124C59.2692 39.7624 59.23 39.6838 59.0605 39.7356ZM58.3862 25.5841C58.3487 25.3804 58.2131 25.275 58.0276 25.2197C57.7796 24.9356 57.4746 24.9285 57.1464 25.041C57.0928 24.682 57.0768 24.314 56.893 23.9853C57.7975 23.3083 58.693 22.6187 59.692 22.0793C59.8811 21.9774 60.2718 21.9095 60.0327 21.5183C59.7651 21.0807 59.5118 21.4201 59.3174 21.5755C58.3112 22.3883 57.1856 23.0153 56.1028 23.7066C55.8441 23.6709 55.6746 23.5405 55.6425 23.2672C56.6344 22.3615 57.6476 21.4844 58.7251 20.6805C58.891 20.5573 59.1711 20.4537 58.916 20.1357C58.6876 19.8517 58.5378 19.9892 58.3434 20.1571C56.7931 21.5112 55.2376 22.8599 53.6856 24.2122L53.6963 24.1889C53.5161 24.3015 53.3359 24.4158 53.1558 24.5283C52.4261 23.8442 51.7269 24.5962 51.0115 24.5712C50.5459 24.5105 50.0803 24.448 49.6129 24.3872C49.5041 24.0978 49.3275 23.9585 49.001 24.08C48.8227 24.1461 48.5765 24.2908 48.4998 23.9746C48.3517 23.3636 47.9771 23.4976 47.5579 23.628C47.0798 23.7763 46.591 23.896 46.1022 23.9978C45.7757 24.0657 45.6527 24.1639 45.7864 24.5301C46.1236 25.4519 46.5054 26.3719 46.3805 27.3937C46.3609 27.6902 46.3609 27.9831 46.5446 28.2404C46.5732 28.3797 46.5999 28.5191 46.6285 28.6602C47.2064 30.234 48.4355 31.1682 49.8413 31.9256C49.7253 32.5544 49.9144 32.8134 50.6208 32.7795C51.9409 32.7188 53.2664 32.717 54.5865 32.7795C55.284 32.8134 55.4855 32.5669 55.3767 31.9346C56.836 31.2147 58.0776 30.2768 58.6395 28.662C58.6805 28.5208 58.7233 28.3797 58.7644 28.2404C58.9106 27.9778 58.9303 27.6938 58.916 27.4026C58.9963 27.1632 59.1336 26.9203 58.8607 26.7095C58.7055 26.4219 58.7947 26.0467 58.5307 25.8002C58.4789 25.727 58.4325 25.6555 58.3862 25.5841ZM76.714 27.006C76.3305 26.2075 75.7382 25.7466 74.8124 25.8288C74.7392 25.8288 74.6679 25.8306 74.5947 25.8306C74.716 25.6645 74.7339 25.4019 74.5412 25.3965C73.3906 25.3679 72.2828 24.8249 71.1946 24.8874C70.5702 24.9231 69.928 25.0964 69.2733 24.9731C68.7756 24.4372 68.2565 24.3908 67.7142 24.9088C66.0748 24.9338 65.1793 25.6305 64.9384 27.065C64.8814 27.165 64.8261 27.265 64.769 27.3651C64.5174 27.5401 64.2463 27.7652 64.3355 28.0796C64.5157 28.712 64.2463 29.1068 63.8431 29.5551C63.3187 30.1393 63.4685 30.5734 64.2124 30.9932C64.0947 31.8488 64.546 32.0685 65.3095 32.0632C68.9612 32.0453 72.6128 32.0578 76.2645 32.0525C77.2848 32.0507 77.4989 31.747 77.2456 30.7234C78.1072 30.4072 78.1697 30.2 77.6434 29.4908C77.3687 29.1193 77.1172 28.7281 76.8567 28.3458C76.9102 27.8885 76.962 27.4312 76.714 27.006ZM73.6867 37.7992C72.3524 37.0721 71.0769 37.2918 70.2545 38.3887C69.8692 38.3922 69.4856 38.3958 69.1003 38.3994C68.8755 37.951 68.6133 37.5526 68.1263 37.3222C67.4859 37.0185 66.9453 36.8953 66.717 37.7867C66.0177 37.3954 65.6003 37.6991 65.3594 38.3619C64.8671 39.7195 65.0669 40.9628 66.0088 42.0721C66.1711 43.5727 67.3217 44.1086 68.4938 44.623C68.6186 45.1018 68.9558 45.3626 69.4107 45.4858C70.7736 45.8556 72.1347 45.8913 73.4851 45.4358C73.8187 45.3233 74.1666 45.1964 74.2165 44.7606C75.3368 44.2443 76.5606 43.837 76.7301 42.3347C77.7183 41.4076 77.9966 39.8034 77.4525 38.3904C77.2099 37.7599 76.8514 37.4544 76.1681 37.7188C75.9059 37.4544 75.5937 37.4669 75.2887 37.6027C74.7713 37.8349 74.2362 37.8563 73.6867 37.7992ZM71.3462 49.9499C71.2392 49.8963 71.1339 49.8427 71.0269 49.7892C70.6559 49.7106 70.4793 48.6763 69.9138 49.5623C69.9155 49.623 69.9191 49.6838 69.9209 49.7445L69.9138 49.7427C67.27 50.175 64.7672 52.6098 64.5264 55.4465C64.2409 58.7906 66.3352 61.7863 69.6087 62.5098C72.809 63.2172 76.045 61.3772 77.1082 58.2493C78.1714 55.1179 76.7443 51.7738 73.7242 50.3233C73.5119 50.25 73.4156 49.9714 73.148 49.9982C73.0837 49.607 72.9946 49.3229 72.4826 49.5927C72.1347 49.7731 71.7262 49.8338 71.3462 49.9499ZM47.6346 57.0828L47.6221 57.0721C48.3178 59.289 49.8894 60.8342 51.6109 62.2543C51.8981 62.4901 52.2228 62.4669 52.4208 62.0757C52.7205 61.7613 53.0523 61.4701 53.1718 61.0271C53.5001 60.7359 53.7177 60.3679 53.8889 59.9696C54.2832 59.6123 54.5579 59.1693 54.7898 58.6977C56.4863 56.2665 58.1846 53.837 59.8775 51.404C59.9935 51.2361 60.1219 51.0414 59.9542 50.836C59.8276 50.6823 59.6527 50.6859 59.4654 50.727C56.5737 51.3558 53.6463 51.8042 50.7778 52.5437C50.2052 52.6009 49.6272 52.633 49.0831 52.8528C48.7442 52.9421 48.3642 52.8742 48.0734 53.1332C47.6239 53.1011 47.1993 53.2172 46.764 53.3065C46.3216 53.3976 46.104 53.6727 46.2289 54.0585C46.5446 55.0303 46.7444 56.0575 47.4009 56.8899C47.4776 56.956 47.5561 57.0203 47.6346 57.0828ZM74.3378 74.832C74.3289 74.7642 74.32 74.6963 74.3111 74.6284C74.3896 74.5105 74.5216 74.3997 74.5376 74.2747C74.6786 73.1261 74.7981 71.9739 74.9247 70.8235C74.939 69.4355 75.2512 68.0993 75.6383 66.7774C75.7899 66.7149 76.004 66.8113 76.1556 66.4755C74.898 66.4755 73.6939 66.4755 72.4897 66.4755C70.4703 66.4755 70.4703 66.4755 69.7586 64.5837C69.7479 64.5569 69.7407 64.5266 69.7354 64.498C69.6194 63.8835 69.243 64.1193 68.8648 64.1943C68.3921 64.289 68.3939 64.5248 68.533 64.8892C68.7007 65.3322 69.0307 65.8288 68.9451 66.2254C68.8113 66.8363 68.0389 66.2075 67.6803 66.6238C67.8533 66.8417 68.1209 66.6934 68.3207 66.7917C68.3332 67.0561 68.269 67.3544 68.3689 67.5795C68.9487 68.9067 68.8149 70.3412 69.0396 71.7184C69.1716 72.9778 69.3144 74.2354 69.4339 75.4948C69.5231 76.4219 70.085 76.7363 70.9324 76.7238C71.4943 76.7166 72.0562 76.7238 72.6182 76.722C74.2147 76.722 74.4788 76.4308 74.3378 74.832ZM65.652 17.2436C68.888 17.2436 72.124 17.2472 75.36 17.2418C76.9655 17.24 78.15 16.1128 78.1251 14.6266C78.1019 13.1761 76.9245 12.0614 75.3689 12.0596C68.8969 12.0525 62.4249 12.0525 55.9511 12.0596C54.3028 12.0614 53.1593 13.1386 53.1629 14.6516C53.1665 16.17 54.3099 17.2418 55.9422 17.2436C59.1782 17.2472 62.4142 17.2436 65.652 17.2436ZM61.8594 85.7217C65.1258 85.7217 68.3921 85.7449 71.6566 85.7109C73.2282 85.6949 74.295 84.5462 74.2629 83.035C74.2326 81.5827 73.1355 80.4894 71.6085 80.4876C65.0776 80.4734 58.5449 80.4823 52.0141 80.4805C51.3986 80.4805 50.8438 80.6591 50.3586 81.0378C49.4881 81.7149 49.1384 82.8635 49.4738 83.921C49.8199 85.0125 50.7814 85.7109 52.0622 85.7181C55.3268 85.7342 58.5931 85.7234 61.8594 85.7217ZM52.7419 76.538C54.5704 76.4094 56.2705 75.727 57.0875 73.9246C57.6869 72.6027 58.2791 71.6988 59.8739 72.0703C59.9007 72.0775 59.9328 72.0703 59.9631 72.065C60.4091 71.9882 60.6642 71.7291 60.6214 71.2701C60.5839 70.8646 60.3538 70.6288 59.9096 70.6448C59.5243 70.6591 59.1336 70.6073 58.7519 70.6556C58.1079 70.7342 57.8082 70.5019 57.6548 69.8481C57.075 67.3901 53.9246 65.3912 51.2184 66.2933C48.9333 67.0561 47.1476 69.4766 47.474 71.797C47.8593 74.5176 50.0821 76.5559 52.7419 76.538ZM50.7207 14.707C50.7404 13.26 49.6076 12.0846 48.168 12.0632C46.7337 12.0417 45.5492 13.185 45.5189 14.6212C45.4885 16.0467 46.6463 17.2382 48.0823 17.2597C49.5362 17.2811 50.6993 16.1539 50.7207 14.707ZM76.475 7.60801C76.12 7.60801 75.7632 7.62587 75.4082 7.60443C74.9515 7.57764 74.9426 7.87239 74.9729 8.18321C75.0014 8.46724 74.7999 8.8924 75.3636 8.88882C76.0754 8.88525 76.7854 8.89239 77.4971 8.88525C77.8949 8.88168 78.1126 8.61551 78.1054 8.27074C78.0983 7.90454 77.9039 7.60086 77.4525 7.60622C77.1261 7.61158 76.8014 7.60801 76.475 7.60801ZM62.0753 8.1457C61.8487 8.91026 62.589 8.82273 63.0315 8.90847C63.4043 8.98171 63.4614 8.59229 63.4846 8.28503C63.5595 7.24359 62.7193 7.84559 62.325 7.66517C61.9772 7.50618 62.0771 7.84738 62.0753 8.1457ZM60.9211 7.59908C60.5465 7.67768 60.4894 7.95635 60.4858 8.2636C60.484 8.57085 60.5269 8.90669 60.905 8.91204C61.1851 8.91562 61.3778 8.67803 61.3474 8.37078C61.3189 8.05995 61.3118 7.71519 60.9211 7.59908Z" fill="#333333"/>
<path d="M82.0676 31.446C82.064 24.8383 82.0605 18.2288 82.0569 11.621C82.0551 8.11086 79.5594 5.48493 76.0327 5.46885C66.5512 5.42776 57.0698 5.42598 47.5865 5.47064C44.049 5.48671 41.5694 8.10193 41.5694 11.6246C41.5676 35.3795 41.5783 59.1327 41.5605 82.8876C41.5587 86.4889 44.0883 89.122 47.7453 89.0863C56.6612 88.9987 65.5808 89.0666 74.4985 89.072C74.4664 90.5832 74.3665 90.6833 72.9287 90.685C68.4332 90.6886 63.936 90.694 59.4406 90.6993C55.3697 90.6886 51.2988 90.6797 47.228 90.6672C43.2516 90.6547 39.9889 87.3856 39.9657 83.3949C39.9586 82.1749 39.9461 80.9548 39.9354 79.7365C39.9496 79.3506 39.9782 78.9648 39.9782 78.5789C39.98 71.4085 39.9817 64.2381 39.98 57.0677C39.9782 53.0216 39.9675 48.9755 39.9621 44.9294C39.9639 43.0609 39.9817 41.1906 39.9585 39.322C39.9514 38.7129 40.2136 38.0126 39.4894 37.5589C39.3823 37.4928 39.4216 37.1677 39.4216 36.9623C39.4162 35.953 39.402 34.9437 39.4252 33.9362C39.4376 33.411 39.2753 32.8804 39.8497 32.4178C40.1494 32.1766 40.1619 31.387 39.8176 31.1119C39.3324 30.7225 39.4305 30.2956 39.4216 29.8472C39.4055 29.0469 39.3841 28.2431 39.4269 27.4446C39.4608 26.8122 39.2289 26.1655 39.8676 25.5707C40.1316 25.3242 40.2582 24.4399 39.6214 24.0094C39.4109 23.8665 39.443 23.6539 39.3948 23.461C39.5911 22.4017 38.9007 21.1834 39.9657 20.2741C40.0121 20.2348 39.98 20.1027 39.9782 20.0133C39.9675 17.9037 39.9568 15.794 39.9461 13.6843C40.0442 12.1212 39.8051 10.5457 40.335 9.00226C41.3678 5.99582 44.14 3.87364 47.3296 3.8647C56.9806 3.83969 66.6315 3.83255 76.2842 3.86649C80.3818 3.88078 83.6571 7.26235 83.6606 11.3531C83.6642 15.5457 83.6589 19.7382 83.666 23.9326C83.666 24.4131 83.5197 24.9383 84.0977 25.2688C84.3028 25.3867 84.203 25.7118 84.2065 25.944C84.2226 26.9247 84.2279 27.9054 84.2386 28.8862C83.5144 29.7382 82.7919 30.5921 82.0676 31.446Z" fill="#FDFCFC"/>
<path d="M39.9602 44.9255C39.9673 48.9716 39.9762 53.0177 39.978 57.0637C39.9816 64.2342 39.9798 71.4046 39.9762 78.575C39.9762 78.9609 39.9477 79.3467 39.9334 79.7326C38.4599 80.1917 36.9917 80.6829 35.4201 80.6383C35.1258 80.6293 34.8297 80.5864 34.5424 80.5239C33.8003 80.3578 33.6095 79.9594 33.8878 79.2145C35.0098 76.2081 36.0891 73.1856 37.1773 70.1666C37.2736 69.8987 37.4431 69.6397 37.3628 69.2342C35.9678 69.7808 34.5692 70.2452 33.0636 70.1309C32.7407 70.1059 32.4053 70.0988 32.1003 70.0023C31.1637 69.704 30.9015 69.1788 31.1727 68.2267C32.0789 65.0523 33.258 61.9691 34.3462 58.8555C34.7298 57.7569 34.7066 57.7443 33.5203 57.8158C31.492 57.9391 29.6724 57.4692 28.3915 55.7615C27.5371 54.6236 27.6477 54.0341 28.6966 53.1034C31.2065 50.8758 33.7147 48.6482 36.2211 46.4171C37.2914 45.4667 38.5776 45.0755 39.9602 44.9255Z" fill="#E10101"/>
<path d="M39.9461 13.6825C39.9568 15.7922 39.9675 17.9019 39.9782 20.0115C39.9782 20.1009 40.0104 20.233 39.9658 20.2723C38.9008 21.1798 39.5911 22.3999 39.3949 23.4592C38.2657 23.1216 37.5289 22.2498 36.7672 21.446C34.7496 19.3184 33.599 16.8229 33.7167 13.8272C33.7239 13.6485 33.7221 13.4699 33.7453 13.2948C33.954 11.7032 34.2269 11.5442 35.7076 12.1034C37.1169 12.6375 38.5333 13.1555 39.9461 13.6825Z" fill="#E10101"/>
<path d="M65.6521 17.2429C62.4161 17.2429 59.1801 17.2447 55.9441 17.2411C54.3101 17.2394 53.1666 16.1675 53.1648 14.6491C53.1612 13.1361 54.3047 12.0589 55.953 12.0571C62.4251 12.0518 68.8971 12.05 75.3708 12.0571C76.9264 12.0589 78.1038 13.1736 78.127 14.6241C78.152 16.1104 76.9657 17.2376 75.3619 17.2394C72.1241 17.2465 68.8881 17.2429 65.6521 17.2429ZM75.7526 14.5616C75.9256 14.1007 75.758 13.7292 75.4458 13.3969C74.9249 12.8253 74.3148 12.7753 73.7011 13.1897C73.1535 13.5595 72.9537 14.1293 73.2141 14.7456C73.4906 15.3994 73.9848 15.7799 74.7572 15.5673C75.5368 15.1511 75.6741 16.2068 76.2789 16.2586C75.6331 14.9957 75.617 14.9439 75.7526 14.5616Z" fill="#FDFCFC"/>
<path d="M61.8595 85.723C58.5931 85.723 55.3286 85.7355 52.0623 85.7177C50.7796 85.7105 49.8199 85.012 49.4738 83.9206C49.1384 82.8631 49.4881 81.7144 50.3586 81.0374C50.8438 80.6587 51.3986 80.4801 52.0141 80.4801C58.545 80.4819 65.0776 80.4711 71.6085 80.4872C73.1355 80.4908 74.2344 81.584 74.2629 83.0346C74.2951 84.544 73.2283 85.6944 71.6567 85.7105C68.3903 85.7445 65.124 85.7212 61.8595 85.723ZM60.8373 82.6326C60.5786 82.2611 59.8526 82.145 59.8258 82.4576C59.7776 83.0363 59.6385 83.6526 59.9489 84.2618C60.3039 83.9599 60.1362 83.6133 60.1594 83.315C60.1933 82.8702 60.3235 82.5647 60.8444 82.6255C61.0977 82.9131 60.782 83.2311 60.9015 83.5419C61.0353 83.892 61.1798 84.2332 61.5937 84.2386C61.9201 84.2421 62.5249 84.1528 62.5338 84.0635C62.6069 83.2346 62.5766 82.3968 62.5766 81.4876C62.0824 81.7359 62.4303 82.32 62.0878 82.2557C61.5508 82.1503 61.2422 82.4861 60.8373 82.6326ZM63.2705 83.3579C63.7219 83.3579 64.043 83.3579 64.3641 83.3579C64.6192 83.3579 64.7547 83.2543 64.6994 82.9792C64.6067 82.5201 64.3605 82.22 63.8646 82.2236C63.2384 82.2289 62.969 82.6166 62.9387 83.19C62.9102 83.7491 63.0957 84.2028 63.7326 84.2618C64.2106 84.3064 64.5567 84.1332 64.6441 83.4454C64.1411 83.7437 63.7308 84.2922 63.2705 83.3579ZM59.4423 83.3454C59.4548 82.6612 59.23 82.2414 58.6021 82.2146C57.9224 82.1843 57.653 82.6291 57.6387 83.2346C57.6263 83.7973 57.8403 84.2403 58.4861 84.2654C59.1729 84.2921 59.4048 83.8509 59.4423 83.3454ZM66.0481 82.3736C65.0295 82.3611 64.7815 83.0346 65.3042 84.2243C65.677 83.6401 65.0651 82.7094 66.0481 82.3736Z" fill="#373739"/>
<path d="M77.2456 30.7246C77.5007 31.7481 77.2849 32.0518 76.2645 32.0536C72.6128 32.059 68.9612 32.0465 65.3095 32.0643C64.5442 32.0679 64.0929 31.85 64.2124 30.9943C64.2856 30.2244 64.6138 29.5402 64.9438 28.8578C65.6396 27.8485 66.585 27.1286 67.625 26.5159C69.3768 25.8192 71.1714 25.7853 72.9928 26.164C74.0988 26.6606 75.1531 27.2358 75.9969 28.1326C76.5678 28.9203 77.0744 29.7421 77.2456 30.7246Z" fill="#DDC298"/>
<path d="M58.6343 28.6599C58.0724 30.2765 56.8308 31.2125 55.3716 31.9342C53.527 31.9307 51.6824 31.9271 49.8361 31.9235C48.4304 31.1661 47.2013 30.2318 46.6233 28.6599C50.6282 28.6599 54.6312 28.6599 58.6343 28.6599Z" fill="#D73C30"/>
<path d="M75.6383 66.777C75.2512 68.0989 74.9372 69.4351 74.9248 70.8231C73.9258 70.9285 72.9446 71.1232 71.9813 71.4144C71.0234 71.7038 70.0636 72.0325 69.0396 71.7181C68.8149 70.339 68.9487 68.9046 68.3689 67.5791C68.2708 67.3522 68.3332 67.0557 68.3207 66.7913C70.7593 66.786 73.1979 66.7824 75.6383 66.777Z" fill="#DDC298"/>
<path d="M52.742 76.5371C50.0822 76.5549 47.8594 74.5167 47.4759 71.7943C47.1495 69.4738 48.9334 67.0533 51.2203 66.2906C53.9265 65.3884 57.0751 67.3874 57.6567 69.8454C57.8119 70.4992 58.1098 70.7332 58.7538 70.6528C59.1337 70.6064 59.5244 70.6564 59.9115 70.6421C60.3557 70.626 60.5858 70.8618 60.6233 71.2673C60.6661 71.7264 60.4092 71.9854 59.965 72.0623C59.9365 72.0676 59.9044 72.0748 59.8758 72.0676C58.2828 71.6978 57.6888 72.6017 57.0894 73.9219C56.2706 75.7261 54.5705 76.4085 52.742 76.5371ZM52.6849 66.8979C50.2731 66.8943 48.3286 68.8254 48.309 71.2441C48.2876 73.7522 50.1839 75.6743 52.6724 75.6689C55.1021 75.6653 57.0519 73.7468 57.0751 71.337C57.0983 68.8897 55.1306 66.8997 52.6849 66.8979Z" fill="#FDFCFC"/>
<path d="M74.2166 44.7579C74.1666 45.1937 73.8188 45.3206 73.4852 45.4331C72.1348 45.8904 70.7719 45.8529 69.4107 45.4831C68.9576 45.3599 68.6205 45.1008 68.4956 44.6203C68.5919 42.8679 69.5374 41.4049 70.1225 39.8204C70.333 39.7739 70.5435 39.7257 70.7558 39.6793C71.4248 39.7954 72.1259 39.6507 72.777 39.9204C72.7484 40.2402 72.9429 40.4688 73.082 40.7296C73.7474 41.989 74.3415 43.2734 74.2166 44.7579Z" fill="#F8C187"/>
<path d="M73.7242 50.3224C76.7426 51.7729 78.1715 55.117 77.1083 58.2484C76.0469 61.3763 72.8091 63.2145 69.6088 62.5089C66.3353 61.7854 64.241 58.7897 64.5264 55.4456C64.769 52.6071 67.2701 50.1741 69.9156 49.7418C69.4536 50.2259 68.9327 50.6475 68.5206 51.1888C68.1656 51.655 67.7018 52.0194 67.0881 52.1159C67.0863 52.0426 67.0828 51.9694 67.081 51.8962C67.1399 51.8372 67.1987 51.7783 67.2594 51.7193C67.4074 51.7175 67.5359 51.6782 67.6197 51.5478C67.8909 51.4924 68.1424 51.4156 68.1602 51.0476C67.8659 51.1137 67.6465 51.2191 67.6001 51.5228C67.4556 51.5335 67.3272 51.5746 67.2522 51.7122C67.1934 51.7711 67.1345 51.8319 67.0756 51.8908C66.4263 52.2338 66.4263 52.2338 66.5797 52.5964C66.3853 53.2984 66.0089 53.8433 65.3274 54.172C64.8011 54.4256 64.5835 54.7686 65.2043 55.1848L65.1954 55.2706C64.9974 56.7729 65.0652 58.2109 66.189 59.3935C66.2461 59.456 66.3014 59.5185 66.3585 59.5811C66.3549 59.8472 66.5333 60.008 66.6939 60.1848C68.3047 61.9551 70.7094 62.5375 73.041 61.7193C76.9638 60.342 78.2036 54.9651 75.2584 52.1284C74.9801 51.8586 74.7321 51.6461 74.3433 51.8997C74.197 51.571 74.4753 51.0584 73.9151 50.9065C73.8509 50.71 73.7867 50.5153 73.7242 50.3224Z" fill="#455571"/>
<path d="M50.7778 52.542C53.6464 51.8042 56.5755 51.3558 59.4654 50.727C59.6528 50.686 59.8276 50.6824 59.9542 50.836C60.1219 51.0414 59.9935 51.2362 59.8775 51.4041C58.1846 53.8371 56.4863 56.2665 54.7898 58.6977C54.6471 58.3887 54.2761 58.2351 54.219 57.8653C54.64 57.6956 55.0699 57.4991 55.0414 56.9614C55.0235 56.6309 54.8095 56.3523 54.4794 56.2219C54.0281 56.0414 53.6856 56.2719 53.3627 56.5541C53.154 56.2558 53.0916 55.8664 52.7865 55.627C52.9203 55.4698 53.0684 55.3215 53.1843 55.1536C53.534 54.6517 53.7873 54.1247 53.4929 53.4995C53.195 52.8617 52.6313 52.7367 52.0105 52.7438C51.6858 52.7474 51.363 52.7939 51.0383 52.8206C50.9527 52.726 50.8652 52.6349 50.7778 52.542ZM55.2786 52.8081C55.0913 53.0297 54.8915 53.2422 54.7203 53.4762C54.4384 53.8585 54.4973 55.0322 54.8612 55.1572C55.5284 55.3876 55.4963 54.691 55.7353 54.3605C55.7692 54.314 55.8156 54.2765 55.8548 54.2354C56.0011 54.239 56.1492 54.2426 56.2954 54.2462C57.0161 54.2658 57.5014 53.9371 57.6066 53.2172C57.694 52.6045 57.4479 52.0704 56.8146 51.9168C56.0689 51.7345 55.4731 51.965 55.2786 52.8081Z" fill="#CF935C"/>
<path d="M50.7207 14.7063C50.7011 16.1551 49.538 17.2805 48.0841 17.259C46.648 17.2376 45.4903 16.0461 45.5206 14.6206C45.5509 13.1844 46.7354 12.0393 48.1697 12.0625C49.6075 12.084 50.7403 13.2576 50.7207 14.7063ZM47.317 15.2315C47.2546 15.1744 47.1939 15.1154 47.1315 15.0583C47.1404 14.5777 47.5097 14.8028 47.713 14.7921C48.316 14.7599 48.9207 14.7814 49.5237 14.7814C49.5219 14.701 49.5201 14.6206 49.5165 14.5402C49.2008 14.5402 48.8815 14.5777 48.5729 14.5313C48.0823 14.458 47.5489 14.7635 47.0994 14.358C47.4579 14.0204 47.8878 13.7417 48.0252 13.2201C47.5132 13.5059 47.1261 13.9168 46.7675 14.3616C46.2074 14.8207 46.8211 14.9529 47.0012 15.2047C47.0548 15.2583 47.1083 15.3101 47.16 15.3637C47.2207 15.4227 47.2795 15.4834 47.3402 15.5424C47.4062 15.6085 47.4722 15.6745 47.5364 15.7406C47.5881 15.7942 47.6417 15.846 47.6934 15.8996C47.7826 15.9782 47.8486 16.189 47.9895 16.0533C48.1269 15.9229 47.9663 15.83 47.8486 15.7674C47.7897 15.7085 47.7291 15.6478 47.6702 15.5888C47.6113 15.5299 47.5525 15.4709 47.4918 15.4102C47.4347 15.3512 47.3759 15.2923 47.317 15.2315Z" fill="#373739"/>
<path d="M46.3751 27.3937C46.4999 26.3736 46.1182 25.4519 45.781 24.5301C45.6472 24.1639 45.7703 24.0657 46.0968 23.9978C46.5874 23.896 47.0744 23.7763 47.5525 23.628C47.9717 23.4976 48.3463 23.3636 48.4944 23.9746C48.5711 24.2925 48.8172 24.1461 48.9956 24.08C49.3221 23.9603 49.4969 24.0978 49.6075 24.3872C49.1312 24.8017 48.8636 25.3143 48.7709 25.9467C48.6817 26.5541 48.8155 26.8542 49.4844 26.6595C50.1944 26.6613 50.9044 26.663 51.6162 26.6648C51.8463 26.6541 52.0889 26.847 52.2673 26.4683C52.4956 25.9842 51.7928 26.0396 51.8873 25.677C52.3083 25.2929 52.7293 24.9106 53.1503 24.5266C53.3305 24.414 53.5107 24.2997 53.6909 24.1871C53.6802 24.4015 53.6695 24.6177 53.657 24.832L53.6302 24.8499C52.9559 25.2268 52.8292 25.7645 53.2788 26.3379C53.1789 26.8595 53.5928 26.7006 53.814 26.7041C54.606 26.7131 55.3998 26.6845 56.1919 26.6702C56.4292 26.6702 56.6646 26.672 56.9019 26.672C56.9608 26.6791 57.0196 26.6863 57.0785 26.6916C57.2016 26.6898 57.3229 26.6898 57.446 26.688C57.7956 26.6845 58.1471 26.6809 58.4967 26.6773C58.6144 26.6863 58.734 26.6952 58.8517 26.7059C59.1264 26.9167 58.9873 27.1596 58.907 27.399C54.7327 27.399 50.553 27.3954 46.3751 27.3937Z" fill="#373739"/>
<path d="M69.0378 71.7189C70.06 72.0315 71.0215 71.7046 71.9795 71.4152C72.9446 71.124 73.924 70.9293 74.9229 70.8239C74.7963 71.9743 74.6768 73.1265 74.5358 74.2751C74.5198 74.4002 74.3878 74.5109 74.3093 74.6288C74.0024 74.5574 73.4923 74.8789 73.4976 74.2073C73.8829 74.1376 74.3289 74.0912 74.2433 73.5445C74.1523 72.9711 73.6724 73.1712 73.3121 73.1569C73.4815 72.9157 73.692 72.6603 73.4405 72.3763C73.148 72.0422 72.8643 72.2887 72.5949 72.4531C72.545 72.0083 72.4362 71.6045 71.8564 71.8439C71.6227 71.9386 71.5317 72.1887 71.6745 72.4316C71.9706 72.9336 72.2935 72.6406 72.6074 72.4388C72.5325 72.6817 72.8358 72.93 72.6003 73.173C72.2828 73.1837 72.0812 73.3605 72.1365 73.6624C72.1989 74.0018 72.4433 74.1394 72.7894 73.975C72.6895 74.2144 72.6164 74.4681 72.3987 74.636C72.2025 74.4538 71.9634 74.4234 71.7101 74.4395C71.7173 74.2341 71.9545 74.084 71.8475 73.8536C71.794 73.4981 71.5424 73.4409 71.2606 73.5034C70.9894 73.5624 70.9038 73.7875 70.9306 74.0465C70.9466 74.2091 71.0661 74.3913 70.7754 74.4359C70.3526 74.502 70.0939 74.7503 70.2812 75.1683C70.5363 75.74 70.9573 75.422 71.3266 75.2719C71.3962 75.2898 71.4657 75.3077 71.5353 75.3237C71.6263 75.4952 71.7797 75.547 71.9599 75.5488C72.0758 75.6882 72.0116 76.0508 72.2721 75.9722C72.5753 75.8793 72.2168 75.6471 72.2685 75.4738C72.4879 75.3523 72.5682 75.1683 72.52 74.9236C73.1265 74.8932 73.7331 74.8646 74.3396 74.8343C74.4805 76.4313 74.2165 76.7225 72.6199 76.726C72.058 76.7278 71.4961 76.7189 70.9341 76.7278C70.0868 76.7385 69.5248 76.4259 69.4356 75.4988C69.3126 74.2341 69.1716 72.9765 69.0378 71.7189ZM73.1176 75.213C72.9642 75.2541 72.8358 75.3219 72.8108 75.5006C72.7216 75.9436 72.8893 76.2044 73.3549 76.1937C73.6243 76.1865 73.8169 75.9936 73.808 75.7346C73.7937 75.3184 73.5939 75.0594 73.1176 75.213ZM70.151 73.1658C69.9655 73.2462 69.7603 73.3695 69.8049 73.6499C69.8459 73.9072 70.0208 74.0626 70.2991 74.0215C70.5327 73.9858 70.6576 73.8196 70.6505 73.5945C70.6416 73.3248 70.4739 73.1801 70.151 73.1658Z" fill="#E8E2E2"/>
<path d="M53.1719 61.0262C53.0524 61.4692 52.7205 61.7604 52.4209 62.0748C50.8207 60.4063 49.2223 58.7396 47.6222 57.0712L47.6346 57.0819C47.5561 57.0194 47.4794 56.9551 47.4009 56.8925C46.7445 56.0601 46.5465 55.0312 46.2289 54.0612C46.1023 53.6735 46.3217 53.4002 46.7641 53.3091C47.1994 53.2198 47.6239 53.1037 48.0735 53.1358C48.8994 56.3298 50.6066 58.9558 53.1719 61.0262Z" fill="#DDC298"/>
<path d="M74.2165 44.7587C74.3414 43.2742 73.7474 41.9898 73.0784 40.7304C72.9393 40.4696 72.7448 40.241 72.7751 39.9212C73.3763 39.5068 73.9757 39.0923 74.7392 39.0388C75.5027 40.0748 76.2609 41.1163 76.7301 42.331C76.5606 43.8351 75.3368 44.2442 74.2165 44.7587Z" fill="#E3A96E"/>
<path d="M70.1207 39.8222C69.5356 41.4085 68.5901 42.8697 68.4938 44.6221C67.3217 44.1077 66.1711 43.5718 66.0088 42.0712C66.7224 41.128 67.4341 40.1848 68.1477 39.2416C68.9308 39.0058 69.4696 39.6007 70.1207 39.8222Z" fill="#E3A96E"/>
<path d="M53.1721 61.0258C50.6087 58.9554 48.9015 56.3295 48.0737 53.1337C48.3645 52.8746 48.7463 52.9407 49.0834 52.8532C49.615 53.9733 50.1484 55.0933 50.68 56.2133C50.2144 56.3938 50.0182 56.6063 50.4874 57.0386C50.8388 57.3638 51.1742 57.6567 51.6879 57.6174C52.2623 58.5499 53.0437 59.2894 53.8893 59.97C53.718 60.3684 53.5004 60.7346 53.1721 61.0258Z" fill="#D73C30"/>
<path d="M50.6798 56.2138C50.1482 55.0937 49.6149 53.9737 49.0833 52.8537C49.6273 52.6339 50.2053 52.6018 50.778 52.5446C50.8654 52.6357 50.9528 52.7286 51.042 52.8215C50.9492 52.9573 50.6156 53.0912 50.7673 53.2002C51.4487 53.695 51.0313 54.2524 50.9439 54.8008C50.8279 55.5225 51.3167 56.0173 52.041 55.894C52.2978 55.8494 52.5405 55.719 52.7902 55.6279C53.0953 55.8672 53.1577 56.2567 53.3664 56.555C53.2647 57.2463 53.4752 57.7322 54.2227 57.8662C54.2798 58.2359 54.649 58.3896 54.7935 58.6986C54.5616 59.1702 54.2869 59.6132 53.8927 59.9705C53.0471 59.2899 52.2675 58.5503 51.6913 57.6179C52.0053 57.3874 52.6992 57.4839 52.6475 57.0534C52.5958 56.6318 51.991 56.4353 51.5486 56.2924C51.2775 56.2049 50.9706 56.2352 50.6798 56.2138Z" fill="#E3B832"/>
<path d="M46.3752 27.3923C50.5531 27.3958 54.7328 27.3976 58.9107 27.3994C58.9249 27.6906 58.9053 27.9746 58.759 28.2354C54.6864 28.2354 50.6137 28.2354 46.5393 28.2372C46.3556 27.9818 46.3556 27.6888 46.3752 27.3923Z" fill="#D73C30"/>
<path d="M68.1459 39.2424C67.4324 40.1856 66.7206 41.1288 66.007 42.072C65.0651 40.9627 64.8636 39.7194 65.3577 38.3617C65.5985 37.699 66.0177 37.3953 66.7152 37.7865C66.9472 37.9598 67.1773 38.1349 67.4092 38.3082C67.493 38.7012 67.7178 38.9548 68.1174 39.0406C68.1281 39.1084 68.137 39.1745 68.1459 39.2424Z" fill="#CF935C"/>
<path d="M76.7301 42.3321C76.2591 41.1174 75.5028 40.0759 74.7393 39.0398C74.7393 38.9952 74.7393 38.9505 74.741 38.9058C75.3208 38.6361 75.7704 38.2074 76.1699 37.7179C76.8532 37.4535 77.2117 37.759 77.4544 38.3896C77.9967 39.8008 77.7184 41.405 76.7301 42.3321Z" fill="#CF935C"/>
<path d="M59.7974 40.777C60.5662 41.2451 60.8588 42.04 61.1068 42.8224C61.4207 43.8156 61.1192 44.3247 60.0489 44.5766C57.2232 45.2393 54.3493 45.3197 51.4648 45.1733C50.1911 45.1089 48.9173 45.0232 47.6811 44.657C45.7331 44.08 45.3656 42.8814 46.6554 41.2772C46.6964 41.3165 46.7374 41.354 46.7784 41.3933C46.7249 41.5309 46.675 41.6702 46.6161 41.806C46.0381 43.1404 46.3539 43.8817 47.7061 44.3283C49.0387 44.7678 50.4354 44.7588 51.8108 44.8928C52.255 44.9357 52.7581 45.0732 53.1755 44.7302C53.3468 44.8606 53.5287 44.9535 53.7535 44.9071C53.9141 44.9053 54.0728 44.9035 54.2334 44.8999C54.7043 45.0196 55.0754 44.782 55.4464 44.5516C55.6819 44.7142 55.8799 45.0286 56.226 44.7481C56.4597 44.741 56.6916 44.732 56.9253 44.7249C57.8904 44.5927 58.859 44.4766 59.8206 44.3194C60.3129 44.239 60.8196 44.005 60.7714 43.4387C60.7054 42.667 60.6198 41.8399 59.8099 41.3898C59.8045 41.1861 59.8009 40.9825 59.7974 40.777Z" fill="#CF935C"/>
<path d="M72.9927 26.161C71.1714 25.7823 69.375 25.8163 67.625 26.5129C67.1861 26.186 66.6759 26.3861 66.2014 26.3254C66.3299 25.6841 66.7758 25.5358 67.3485 25.5822C68.1209 25.7948 68.747 25.5412 69.2733 24.9731C69.928 25.0946 70.5702 24.9213 71.1946 24.8856C72.2845 24.823 73.3906 25.3661 74.5412 25.3947C74.732 25.4 74.716 25.6626 74.5947 25.8288C74.0328 25.8002 73.3852 25.3589 72.9927 26.161Z" fill="#7C8C57"/>
<path d="M46.5393 28.2398C50.612 28.2398 54.6864 28.238 58.7591 28.238C58.7162 28.3791 58.6752 28.5202 58.6342 28.6596C54.6311 28.6596 50.628 28.6596 46.6249 28.6578C46.5946 28.5184 46.5678 28.3791 46.5393 28.2398Z" fill="#373739"/>
<path d="M67.0883 52.1162C67.702 52.018 68.164 51.6553 68.5208 51.1891C68.9329 50.6496 69.452 50.2263 69.9158 49.7422L69.9212 49.7439C70.1067 49.6761 70.0336 49.6171 69.914 49.5617C70.4795 48.6757 70.6579 49.7082 71.0272 49.7886C70.3832 50.6282 69.3539 51.0998 68.8544 52.0769L68.8633 52.0698C68.8009 52.1323 68.7384 52.1948 68.676 52.2573L68.6849 52.2502C68.5743 52.2627 68.4976 52.3091 68.4994 52.436L68.5047 52.4306C67.8019 52.5914 67.2578 52.9326 67.0687 53.6846L67.0776 53.6775C66.9456 53.6793 66.9135 53.7686 66.901 53.8776C66.8225 54.0223 66.744 54.1652 66.6673 54.3099C66.1446 54.5439 65.6523 54.8315 65.2045 55.1887C64.5819 54.7707 64.7996 54.4278 65.3258 54.1759C66.0073 53.8472 66.3819 53.3024 66.5781 52.6021C66.8225 52.5146 66.9795 52.3413 67.0883 52.1162Z" fill="#DDC298"/>
<path d="M75.6384 66.7761C73.1998 66.7814 70.7594 66.785 68.3208 66.7904C68.121 66.6921 67.8535 66.8404 67.6804 66.6224C68.0372 66.2062 68.8114 66.835 68.9452 66.2241C69.0326 65.8275 68.7008 65.3309 68.5331 64.8879C68.394 64.5217 68.3922 64.2877 68.8649 64.193C69.2431 64.118 69.6195 63.8822 69.7355 64.4967C69.7408 64.5253 69.748 64.5556 69.7587 64.5824C70.4704 66.4742 70.4705 66.4742 72.4898 66.4742C73.694 66.4742 74.8981 66.4742 76.1558 66.4742C76.0041 66.81 75.7901 66.7153 75.6384 66.7761Z" fill="#373739"/>
<path d="M53.2826 26.3398C52.833 25.7664 52.9597 25.2305 53.634 24.8536C53.6822 24.9393 53.7286 25.0233 53.7749 25.109C53.8088 25.0465 53.8427 24.984 53.8766 24.9214C53.9961 24.8625 54.1175 24.8035 54.237 24.7446C54.2477 24.7178 54.2584 24.6928 54.2691 24.666C54.2548 24.6874 54.2388 24.7106 54.2245 24.7321C54.1068 24.7928 53.989 24.8553 53.8731 24.9161C53.8017 24.8893 53.7321 24.8625 53.6608 24.8357C53.6715 24.6213 53.6822 24.4052 53.6947 24.1908L53.684 24.214C54.4296 24.0926 55.0058 23.621 55.6409 23.2673C55.6748 23.5406 55.8425 23.671 56.1012 23.7067C56.3259 23.9068 56.5525 24.1069 56.8914 23.9836C57.0752 24.3105 57.0912 24.6803 57.1447 25.0393C56.8647 25.3091 56.5132 25.2358 56.1761 25.2555C55.8889 25.2716 55.5142 25.1537 55.4768 25.6378L55.4821 25.627C55.1289 25.636 54.7757 25.6431 54.4207 25.6521C53.8267 25.5234 53.7714 26.2916 53.2826 26.3398ZM54.8328 24.4034C54.8221 24.432 54.8132 24.4606 54.8025 24.4891C55.0683 24.4891 55.3341 24.4891 55.5999 24.4891C55.5981 24.4606 55.5945 24.432 55.5927 24.4034C55.3394 24.4034 55.0861 24.4034 54.8328 24.4034Z" fill="#E8E2E2"/>
<path d="M56.2241 44.749C55.8781 45.0312 55.6801 44.7168 55.4446 44.5525C55.4553 44.4399 55.466 44.3292 55.4767 44.2166L55.4856 44.2077C55.5498 44.2006 55.6123 44.1952 55.6765 44.1881C55.7157 44.2095 55.755 44.2291 55.7942 44.2506C55.8067 44.1756 55.8192 44.1023 55.8317 44.0291C56.1867 43.8272 56.4043 43.5486 56.3383 43.1145C56.5363 43.0823 56.5363 42.9394 56.5185 42.7876L56.5488 42.7626C56.6291 42.7036 56.7094 42.6429 56.7879 42.5839C56.9609 42.6607 57.1393 42.8483 57.2927 42.5571C57.9456 42.4821 58.3202 42.073 58.5539 41.4978C58.9464 41.5818 59.0588 41.4014 59.0784 41.0262C59.1087 40.4439 58.7056 40.2099 58.3149 39.949C58.3827 39.7615 58.4487 39.5739 58.5165 39.3863C58.5735 39.3756 58.6324 39.3703 58.6913 39.3667C58.7537 39.4292 58.8179 39.4917 58.8804 39.5543L58.8822 39.5561C58.941 39.615 59.0017 39.6739 59.0606 39.7329C59.1194 39.7918 59.1783 39.8526 59.2372 39.9115L59.2389 39.9133C59.5886 40.8565 59.7135 41.7693 58.9178 42.5768C58.8732 42.6214 58.9071 42.7429 58.9036 42.8269C58.7805 42.8108 58.718 42.8644 58.718 42.9894C58.4201 42.9323 58.165 42.9358 58.1847 43.3503C57.4158 43.1252 57.389 43.8379 57.0947 44.2131L57.0876 44.2202C57.0305 44.2774 56.9734 44.3345 56.9181 44.3899L56.9127 44.3971C56.6344 44.4185 56.4115 44.5471 56.2241 44.749Z" fill="#C4D470"/>
<path d="M49.8358 31.9235C51.6803 31.9271 53.5249 31.9307 55.3712 31.9342C55.4801 32.5666 55.2785 32.8131 54.581 32.7792C53.2609 32.7167 51.9354 32.7167 50.6154 32.7792C49.9107 32.8113 49.7198 32.5523 49.8358 31.9235Z" fill="#373739"/>
<path d="M47.6221 57.072C49.2222 58.7404 50.8206 60.4071 52.4208 62.0755C52.2245 62.4667 51.8981 62.4918 51.6109 62.2542C49.8894 60.834 48.316 59.2888 47.6221 57.072Z" fill="#B08B74"/>
<path d="M51.891 25.6801C51.7964 26.0409 52.4993 25.9855 52.2709 26.4714C52.0925 26.8501 51.8499 26.6554 51.6198 26.6679C51.4932 26.0963 51.1239 25.7998 50.553 25.7926C49.9733 25.7837 49.6165 26.0945 49.488 26.6626C48.8173 26.8573 48.6835 26.5572 48.7745 25.9498C48.8672 25.3174 49.1366 24.8048 49.6111 24.3903C50.0767 24.4511 50.5423 24.5136 51.0097 24.5743C51.1078 25.0977 51.6038 25.3049 51.891 25.6801Z" fill="#FDFCFC"/>
<path d="M76.4748 7.60675C76.8012 7.60675 77.1259 7.61033 77.4524 7.60497C77.9037 7.59961 78.0981 7.90329 78.1053 8.26949C78.1124 8.61426 77.8965 8.88042 77.4969 8.88399C76.7852 8.88935 76.0752 8.88221 75.3634 8.88757C74.7997 8.89114 75.0031 8.46599 74.9727 8.18196C74.9406 7.86935 74.9495 7.5746 75.408 7.60318C75.763 7.62462 76.1198 7.60675 76.4748 7.60675Z" fill="#373739"/>
<path d="M73.7243 50.3231C73.7885 50.5178 73.8528 50.7108 73.9152 50.9055C73.5299 51.3145 73.0036 51.3824 72.5006 51.536C72.0439 51.6754 71.4374 51.7486 71.5087 52.481C71.0056 52.7401 70.3955 52.9044 70.4419 53.6636C70.3385 53.6011 70.235 53.5368 70.1297 53.4742C70.103 53.1545 70.6043 52.7258 69.9353 52.5418C71.2447 51.9951 71.8048 50.5018 73.1481 49.9998C73.4157 49.9712 73.512 50.2499 73.7243 50.3231Z" fill="#D73C30"/>
<path d="M55.6408 23.2685C55.0057 23.6204 54.4295 24.0938 53.6838 24.2153C55.2376 22.8648 56.7914 21.5143 58.3416 20.1603C58.5343 19.9923 58.6859 19.853 58.9142 20.1388C59.1676 20.4568 58.8893 20.5586 58.7234 20.6837C57.6459 21.4857 56.6326 22.3628 55.6408 23.2685Z" fill="#373739"/>
<path d="M73.1482 49.9965C71.8049 50.5003 71.2447 51.9937 69.9353 52.5403C69.352 52.4813 68.9185 52.7636 68.5368 53.1602C68.3923 53.1512 68.2478 53.1405 68.1033 53.1316C68.1907 52.8708 68.5582 52.769 68.5064 52.4278L68.5011 52.4331C68.6349 52.4438 68.7045 52.3885 68.6866 52.2473L68.6777 52.2545C68.8168 52.2688 68.8935 52.2223 68.865 52.0669L68.8561 52.0741C70.0852 51.8347 70.9272 51.1398 71.3482 49.9483C71.7282 49.834 72.1367 49.7715 72.4828 49.591C72.9947 49.3195 73.0821 49.6053 73.1482 49.9965Z" fill="#DDC298"/>
<path d="M56.8911 23.9844C56.5522 24.1077 56.3274 23.9076 56.1008 23.7075C57.1837 23.0162 58.3093 22.3874 59.3154 21.5764C59.5099 21.4192 59.7632 21.0798 60.0308 21.5193C60.2698 21.9105 59.8791 21.9783 59.6901 22.0802C58.6911 22.6179 57.7955 23.3074 56.8911 23.9844Z" fill="#373739"/>
<path d="M58.3146 39.9499C58.7053 40.2107 59.1084 40.4447 59.0781 41.027C59.0585 41.4004 58.9461 41.5826 58.5536 41.4986C58.3467 41.1949 58.0078 41.0092 57.8401 40.6447C57.7723 41.2003 57.6278 41.6665 57.1176 41.9256C57.1229 41.7809 57.0926 41.6255 57.1372 41.495C57.7205 39.7891 57.469 39.1567 55.8582 38.3028C55.8582 38.2528 55.8582 38.2028 55.8617 38.1528C56.47 38.0831 56.8785 38.4511 57.2888 38.8119C57.5903 39.2264 57.5422 39.9588 58.3146 39.9499Z" fill="#7C8C57"/>
<path d="M72.9927 26.162C73.3851 25.3599 74.0309 25.8012 74.5946 25.8315C74.666 25.8298 74.7391 25.8298 74.8123 25.8298C75.1387 26.1442 75.4634 26.4603 75.7898 26.7747C75.879 27.2231 76.0735 27.6554 75.9932 28.1288L75.9986 28.1306C75.1548 27.232 74.0987 26.6586 72.9927 26.162Z" fill="#D73C30"/>
<path d="M55.8621 38.1497C55.8586 38.1997 55.8568 38.2497 55.8586 38.2998C55.7943 38.4712 55.7301 38.6427 55.6659 38.8142C55.2164 38.791 54.8524 38.4052 54.3726 38.5105C54.2049 38.4123 54.0372 38.3123 53.8695 38.214C53.7714 37.9389 53.5377 37.9746 53.3201 37.9746C53.0418 37.9746 52.7635 37.9764 52.4852 37.9764C51.381 38.089 50.4391 38.6677 49.4258 39.0429C49.3991 39.0089 49.3723 38.975 49.3438 38.9411C51.3792 37.5388 53.5538 37.294 55.8621 38.1497Z" fill="#CF935C"/>
<path d="M68.146 39.2422C68.1371 39.1744 68.1264 39.1083 68.1174 39.0404C68.2619 38.885 68.4082 38.7296 68.5527 38.5741C68.7347 38.5152 68.9184 38.458 69.1004 38.3991C69.4857 38.3955 69.8692 38.3919 70.2545 38.3884C70.4972 38.5081 70.7398 38.6277 70.9824 38.7492C70.9057 39.06 70.829 39.3709 70.7523 39.6817C70.5418 39.7281 70.3313 39.7764 70.119 39.8228C69.4696 39.6013 68.9309 39.0064 68.146 39.2422Z" fill="#D73C30"/>
<path d="M70.9822 38.7478C70.7396 38.6281 70.497 38.5084 70.2544 38.387C71.0768 37.2901 72.3505 37.0704 73.6866 37.7975C73.9061 38.1172 74.2967 38.2959 74.4216 38.6924C74.0113 38.6942 73.733 38.3655 73.3709 38.2655C71.4871 37.7385 71.8439 37.2526 70.9822 38.7478Z" fill="#E8E2E2"/>
<path d="M67.3485 25.5835C66.7759 25.537 66.3281 25.6853 66.2015 26.3266C65.6627 26.3927 65.4076 26.8607 65.0295 27.1555C64.9991 27.1269 64.9688 27.0965 64.9385 27.0679C65.1793 25.6317 66.0748 24.9368 67.7142 24.9118C67.5911 25.1333 67.4698 25.3584 67.3485 25.5835Z" fill="#E8E2E2"/>
<path d="M69.1002 38.398C68.9182 38.4569 68.7345 38.5141 68.5525 38.573C68.2564 38.1193 67.8746 38.0353 67.409 38.3069C67.1771 38.1336 66.947 37.9585 66.7151 37.7852C66.9434 36.8938 67.484 37.0171 68.1244 37.3208C68.6132 37.5512 68.8754 37.9496 69.1002 38.398Z" fill="#FDFCFC"/>
<path d="M74.42 38.6941C74.2952 38.2975 73.9045 38.1189 73.6851 37.7991C74.2345 37.8563 74.7715 37.8349 75.2888 37.6026C75.5921 37.4669 75.9042 37.4526 76.1683 37.7187C75.7687 38.2082 75.3191 38.6369 74.7393 38.9067C74.6341 38.8352 74.5271 38.7638 74.42 38.6941Z" fill="#7C8C57"/>
<path d="M64.9437 28.8565C64.6119 29.5389 64.2855 30.2213 64.2123 30.993C63.4684 30.575 63.3186 30.1391 63.8431 29.555C64.2462 29.1084 64.5156 28.7118 64.3354 28.0795C64.2462 27.7669 64.5174 27.5418 64.7689 27.3649L64.7743 27.4435C64.8492 27.9133 64.1891 28.4707 64.9437 28.8565Z" fill="#7C8C57"/>
<path d="M77.2458 30.7243C77.0745 29.7418 76.5679 28.9201 75.9971 28.1305L75.9917 28.1287C76.2789 28.202 76.5679 28.2734 76.8551 28.3467C77.1173 28.7289 77.3671 29.1202 77.6418 29.4917C78.1698 30.2009 78.1074 30.4081 77.2458 30.7243Z" fill="#7C8C57"/>
<path d="M51.891 25.6801C51.6056 25.305 51.1079 25.096 51.0098 24.5726C51.7251 24.5994 52.4262 23.8455 53.1558 24.5297C52.733 24.9138 52.312 25.2978 51.891 25.6801Z" fill="#7C8C57"/>
<path d="M62.0755 8.14565C62.0773 7.84733 61.9756 7.50613 62.3252 7.66512C62.7195 7.84554 63.5597 7.24354 63.4848 8.28498C63.4634 8.59224 63.4045 8.97988 63.0317 8.90842C62.591 8.82268 61.8489 8.91021 62.0755 8.14565Z" fill="#7C8C57"/>
<path d="M71.3464 49.9494C70.9271 51.1409 70.0851 51.8358 68.8542 52.0751C69.3537 51.0998 70.3831 50.6264 71.027 49.7868C71.1341 49.8404 71.2393 49.8958 71.3464 49.9494Z" fill="#D73C30"/>
<path d="M67.3484 25.5822C67.4697 25.3572 67.591 25.1339 67.7123 24.9088C68.2546 24.3907 68.7737 24.4372 69.2714 24.9731C68.747 25.5412 68.1208 25.7948 67.3484 25.5822Z" fill="#E3B832"/>
<path d="M76.8567 28.3441C76.5695 28.2709 76.2805 28.1994 75.9933 28.1262C76.0736 27.6528 75.8792 27.2205 75.7917 26.7721C76.1378 26.6935 76.4179 26.8829 76.7158 27.0044C76.962 27.4295 76.9103 27.8868 76.8567 28.3441Z" fill="#E3B832"/>
<path d="M58.9035 42.8312C58.9071 42.7455 58.8732 42.6258 58.9178 42.5811C59.7134 41.7737 59.5868 40.8591 59.2389 39.9177C59.7027 40.0248 59.6884 40.4428 59.7955 40.7787C59.799 40.9823 59.8026 41.1878 59.8062 41.3914C59.7402 41.863 59.5422 42.3185 59.61 42.808C59.3852 43.1188 59.139 42.8116 58.9035 42.8312Z" fill="#7C8C57"/>
<path d="M74.3379 74.8312C73.7313 74.8616 73.1248 74.8901 72.5183 74.9205C72.4772 74.824 72.438 74.7294 72.397 74.6329C72.6146 74.4632 72.6877 74.2095 72.7876 73.972C72.8322 73.9291 72.8751 73.8844 72.9197 73.8416C72.9643 74.097 73.1212 74.122 73.33 74.0416L73.3193 74.0327C73.2889 74.1899 73.3621 74.2435 73.5083 74.2203L73.4976 74.2078C73.4923 74.8794 74.0025 74.5579 74.3093 74.6293C74.32 74.6954 74.3289 74.7633 74.3379 74.8312Z" fill="#7C8C57"/>
<path d="M60.9211 7.59735C61.3118 7.71346 61.3189 8.05823 61.3492 8.36906C61.3796 8.67631 61.1851 8.91389 60.9068 8.91032C60.5304 8.90496 60.4858 8.57091 60.4876 8.26187C60.4894 7.95462 60.5465 7.67595 60.9211 7.59735Z" fill="#7C8C57"/>
<path d="M76.7141 27.0047C76.418 26.8832 76.1379 26.6956 75.7901 26.7725C75.4636 26.4563 75.139 26.1419 74.8125 25.8275C75.7401 25.7453 76.3306 26.2062 76.7141 27.0047Z" fill="#FDFCFC"/>
<path d="M58.3148 39.9499C57.5424 39.9589 57.5905 39.2265 57.2891 38.8102C57.7868 38.8138 58.1204 39.1675 58.5164 39.3872C58.4486 39.5748 58.3826 39.7624 58.3148 39.9499Z" fill="#E3A96E"/>
<path d="M55.4783 25.6386C55.5139 25.1527 55.8904 25.2724 56.1776 25.2563C56.5147 25.2367 56.8662 25.3117 57.1462 25.0402C57.4745 24.9276 57.7795 24.9348 58.0275 25.2188L57.9793 25.2778C57.5833 25.2867 57.1302 25.1259 56.9072 25.644C56.4291 25.4546 55.9546 25.4403 55.4783 25.6386Z" fill="#B08B74"/>
<path d="M46.6553 41.2756C46.9782 40.7057 47.3795 40.2127 47.9682 39.9001L47.9878 39.9233C47.879 40.586 47.1887 40.8111 46.9157 41.3506C46.8693 41.3649 46.8247 41.3792 46.7784 41.3917C46.7373 41.3542 46.6963 41.3149 46.6553 41.2756Z" fill="#CF935C"/>
<path d="M58.8552 26.7096C58.7375 26.7006 58.618 26.6917 58.5002 26.681C58.5056 26.3916 58.5109 26.1004 58.5145 25.811L58.5252 25.7985C58.7874 26.0468 58.7 26.422 58.8552 26.7096Z" fill="#B08B74"/>
<path d="M48.4714 39.5131C48.5874 39.2987 48.7801 39.2005 49.0084 39.1541C49.0298 39.1791 49.0494 39.2023 49.0708 39.2273C48.9656 39.4506 48.7854 39.5667 48.5428 39.5917C48.5196 39.5649 48.4964 39.5381 48.4714 39.5131Z" fill="#CF935C"/>
<path d="M58.0258 25.2184C58.2131 25.2738 58.3487 25.3792 58.3843 25.5829L58.3326 25.6347C58.2131 25.515 58.0954 25.3953 57.9758 25.2774L58.0258 25.2184Z" fill="#B08B74"/>
<path d="M64.7688 27.366C64.8259 27.266 64.8812 27.166 64.9383 27.0659C64.9686 27.0945 64.9989 27.1249 65.0293 27.1534C64.9436 27.2499 64.858 27.3482 64.7724 27.4446C64.7742 27.4446 64.7688 27.366 64.7688 27.366Z" fill="#E8E2E2"/>
<path d="M47.97 39.9001C48.0717 39.8232 48.1733 39.7464 48.2732 39.6696C48.3018 39.7018 48.3321 39.7321 48.3606 39.7625C48.2715 39.8965 48.1448 39.9447 47.9878 39.9233L47.97 39.9001Z" fill="#CF935C"/>
<path d="M49.0083 39.1521C49.1207 39.0824 49.2313 39.0127 49.3437 38.9431C49.3704 38.977 49.399 39.0109 49.424 39.0449C49.3062 39.1056 49.1885 39.1664 49.069 39.2271C49.0511 39.2021 49.0297 39.1771 49.0083 39.1521Z" fill="#CF935C"/>
<path d="M69.9138 49.5602C70.0333 49.6156 70.1065 49.6746 69.921 49.7425C69.9174 49.6817 69.9156 49.621 69.9138 49.5602Z" fill="#455571"/>
<path d="M58.3862 25.5837C58.4326 25.6551 58.479 25.7284 58.5271 25.7998L58.5164 25.8123C58.4558 25.7534 58.3951 25.6944 58.3345 25.6355L58.3862 25.5837Z" fill="#B08B74"/>
<path d="M47.4009 56.8923C47.4794 56.9548 47.5561 57.0191 47.6346 57.0816C47.5561 57.0191 47.4776 56.9548 47.4009 56.8923Z" fill="#B08B74"/>
<path d="M58.8803 39.5564C58.8178 39.4939 58.7536 39.4314 58.6912 39.3688C58.816 39.3688 58.9124 39.3974 58.8803 39.5564Z" fill="#7C8C57"/>
<path d="M59.0585 39.7351C58.9996 39.6761 58.939 39.6172 58.8801 39.5582C59.0335 39.5225 59.1103 39.5654 59.0585 39.7351Z" fill="#7C8C57"/>
<path d="M59.2374 39.913C59.1785 39.854 59.1197 39.7933 59.0608 39.7344C59.2303 39.6826 59.2695 39.7612 59.2374 39.913Z" fill="#7C8C57"/>
<path d="M48.2734 39.6704C48.3394 39.6186 48.4054 39.565 48.4715 39.5132C48.4946 39.54 48.5178 39.565 48.541 39.5918C48.4804 39.6489 48.4197 39.7061 48.3591 39.7651C48.3323 39.7329 48.302 39.7025 48.2734 39.6704Z" fill="#CF935C"/>
<path d="M74.7569 15.5633C73.9845 15.7759 73.4903 15.3954 73.2138 14.7416C72.9534 14.1271 73.1532 13.5554 73.7008 13.1857C74.3145 12.7712 74.9228 12.823 75.4455 13.3929C75.3723 13.4411 75.2992 13.4911 75.2261 13.5394C74.7676 13.2518 74.2984 13.1285 73.8293 13.4965C73.4564 13.7877 73.3833 14.1949 73.526 14.6219C73.7187 15.2007 74.2003 15.3132 74.7408 15.2953C74.7462 15.3864 74.7515 15.4758 74.7569 15.5633Z" fill="#455571"/>
<path d="M74.7571 15.5635C74.7517 15.4742 74.7446 15.3849 74.7393 15.2956C75.096 15.1562 75.3422 14.9079 75.4814 14.5507C75.5723 14.5542 75.6615 14.556 75.7525 14.5596C75.6187 14.9419 75.6348 14.9955 76.2806 16.2531C75.674 16.2048 75.5367 15.1491 74.7571 15.5635Z" fill="#373739"/>
<path d="M75.7523 14.5609C75.6613 14.5573 75.5722 14.5555 75.4812 14.5519C75.499 14.1893 75.4205 13.8517 75.2261 13.5427C75.2992 13.4944 75.3724 13.4444 75.4455 13.3962C75.7577 13.7284 75.9236 14.1 75.7523 14.5609Z" fill="#455571"/>
<path d="M63.2706 83.3567C63.7309 84.2928 64.1412 83.7426 64.6442 83.4442C64.555 84.1302 64.209 84.3053 63.7327 84.2606C63.0958 84.2017 62.9103 83.7497 62.9388 83.1888C62.9674 82.6154 63.2367 82.2277 63.8647 82.2224C64.3624 82.2188 64.6086 82.5189 64.6995 82.978C64.7548 83.2531 64.6193 83.3567 64.3642 83.3567C64.0431 83.3549 63.722 83.3567 63.2706 83.3567Z" fill="#D5CFCF"/>
<path d="M60.8372 82.6327C61.2439 82.4862 61.5507 82.1504 62.0877 82.2522C62.4284 82.3165 62.0805 81.7324 62.5765 81.4841C62.5765 82.3933 62.6068 83.2311 62.5336 84.06C62.5265 84.1493 61.92 84.2386 61.5935 84.2351C61.1797 84.2297 61.037 83.8885 60.9014 83.5384C60.7819 83.2276 61.0994 82.9096 60.8443 82.622L60.8372 82.6327ZM62.25 83.3115C62.2643 82.9667 62.2233 82.6184 61.8058 82.5827C61.3866 82.5487 61.2617 82.8881 61.2617 83.2275C61.2617 83.5527 61.3295 83.9117 61.763 83.9117C62.1323 83.9153 62.2357 83.633 62.25 83.3115Z" fill="#E8E2E2"/>
<path d="M59.4423 83.3449C59.4048 83.8522 59.1729 84.2916 58.4843 84.2648C57.8403 84.2381 57.6245 83.7968 57.637 83.2341C57.6513 82.6268 57.9224 82.1837 58.6003 82.2141C59.23 82.2409 59.4548 82.6607 59.4423 83.3449ZM59.0373 83.3592C59.0534 82.9394 59.0142 82.5893 58.5789 82.566C58.1525 82.5428 58.0366 82.8858 58.0277 83.2306C58.0187 83.5771 58.1169 83.9094 58.5521 83.9076C58.9392 83.9058 59.0195 83.6075 59.0373 83.3592Z" fill="#D5CFCF"/>
<path d="M60.8445 82.624C60.3236 82.5651 60.1934 82.8705 60.1595 83.3135C60.1363 83.6119 60.304 83.9566 59.949 84.2603C59.6386 83.6512 59.7777 83.0367 59.8259 82.4561C59.8509 82.1453 60.5787 82.2614 60.8374 82.6329L60.8445 82.624Z" fill="#D5CFCF"/>
<path d="M66.0481 82.3729C65.0652 82.7087 65.6771 83.6377 65.3042 84.2236C64.7833 83.0339 65.0313 82.3604 66.0481 82.3729Z" fill="#E8E2E2"/>
<path d="M64.7747 27.4442C64.8603 27.3477 64.9459 27.2495 65.0316 27.153C65.4097 26.86 65.6648 26.392 66.2036 26.3241C66.6781 26.3849 67.1865 26.1848 67.6271 26.5117C66.5871 27.1244 65.6417 27.8461 64.9459 28.8536C64.1896 28.4695 64.8496 27.9122 64.7747 27.4442Z" fill="#D73C30"/>
<path d="M52.6847 66.8979C55.1304 66.9015 57.0981 68.8915 57.0749 71.3388C57.0517 73.7468 55.1019 75.6671 52.6722 75.6707C50.1819 75.6742 48.2874 73.7521 48.3088 71.2459C48.3284 68.8236 50.2711 66.8943 52.6847 66.8979ZM52.1995 74.4845C52.6205 75.2205 53.0004 74.874 53.3768 74.4399C53.9477 74.1255 54.3812 73.6646 54.7576 73.143C55.3231 72.5642 55.8244 71.939 56.0884 71.1637C56.3221 70.476 56.2668 69.815 55.7691 69.2398C55.291 68.6878 54.6773 68.5681 53.9905 68.6807C53.3751 68.7807 53.0879 69.3005 52.7025 69.7489C52.5812 69.6078 52.4867 69.4988 52.3903 69.3899C51.7178 68.6164 50.7991 68.4306 50.0178 68.9111C49.2239 69.3988 48.9349 70.3045 49.2881 71.2423C49.5111 71.8354 49.875 72.3391 50.3139 72.7893C50.7385 73.3806 51.2379 73.895 51.8694 74.2684C51.98 74.3416 52.0889 74.4131 52.1995 74.4845Z" fill="#C4D470"/>
<path d="M74.4199 38.6938C74.5269 38.7635 74.6322 38.8349 74.7392 38.9046C74.7392 38.9492 74.7374 38.9939 74.7374 39.0403C73.9739 39.0921 73.3745 39.5084 72.7734 39.9228C72.1222 39.6531 71.4212 39.7995 70.7522 39.6816C70.8289 39.3708 70.9056 39.06 70.9823 38.7492C71.8422 37.254 71.4872 37.7399 73.371 38.2668C73.7313 38.3669 74.0114 38.6956 74.4199 38.6938ZM72.0687 39.3815C72.3185 39.3655 72.5147 39.2493 72.5325 38.9778C72.5522 38.6849 72.322 38.6866 72.1133 38.6884C71.8689 38.6902 71.621 38.7259 71.6317 39.0403C71.6406 39.2779 71.8404 39.3601 72.0687 39.3815Z" fill="#E3B832"/>
<path d="M71.5069 52.4796C71.4356 51.7472 72.0439 51.6739 72.4988 51.5346C73.0019 51.3809 73.5281 51.3131 73.9134 50.904C74.4736 51.054 74.1953 51.5667 74.3416 51.8954C74.454 52.0276 74.5628 52.1634 74.6823 52.2884C76.1469 53.8157 76.6767 56.7668 75.8133 58.605C74.8964 60.5557 72.6219 61.7632 70.2814 61.5399C69.2396 61.4417 68.6099 61.0326 68.3245 60.2752C69.5054 60.6593 69.9888 60.4056 70.3117 59.232C71.6532 60.2466 72.6522 59.934 73.1464 58.3459C73.4443 58.3781 73.8385 58.8604 73.9634 58.546C74.1578 58.053 74.7126 57.8565 74.7929 57.3617C74.8643 56.9276 75.3031 56.2988 74.3844 56.188C74.2363 55.9933 74.4218 55.8701 74.4879 55.7236C75.073 54.4428 74.3951 53.4549 72.9519 53.4853C72.6451 52.9011 72.3204 52.3384 71.5069 52.4796Z" fill="#FDFCFC"/>
<path d="M68.3262 60.278C68.6098 61.0354 69.2413 61.4427 70.2831 61.5427C72.6236 61.766 74.8981 60.5584 75.815 58.6077C76.6784 56.7714 76.1486 53.8185 74.684 52.2912C74.5645 52.1661 74.4574 52.0286 74.3433 51.8982C74.7322 51.6445 74.9801 51.8589 75.2584 52.1268C78.2019 54.9654 76.9638 60.3405 73.041 61.7178C70.7095 62.5359 68.3048 61.9536 66.6939 60.1833C66.5333 60.0064 66.3532 59.8457 66.3585 59.5795C66.3799 59.5563 66.3995 59.5331 66.421 59.5098C66.8741 59.7385 67.3397 59.835 67.8338 59.6563C67.9069 59.8046 67.9819 59.9529 68.055 60.1029C68.1353 60.1904 68.1567 60.3584 68.3369 60.303L68.3262 60.278Z" fill="#373739"/>
<path d="M66.1873 59.3921C65.0634 58.2096 64.9939 56.7715 65.1919 55.2692C65.4987 55.5658 65.8038 55.8623 66.1106 56.1588C66.4067 56.4804 66.3247 56.8376 66.2355 57.2146C66.1195 57.713 65.8894 58.2024 66.0535 58.7365L66.066 58.8098C66.1231 58.9884 66.1802 59.167 66.239 59.3457L66.1873 59.3921Z" fill="#373739"/>
<path d="M66.1123 56.1588C65.8055 55.8622 65.4987 55.5657 65.1936 55.2692C65.1936 55.2692 65.2025 55.1834 65.2043 55.1852C65.6539 54.828 66.1444 54.5403 66.6671 54.3063C66.5083 54.9316 66.4905 55.5997 66.1123 56.1588Z" fill="#D73C30"/>
<path d="M67.088 52.1154C66.9792 52.3405 66.8222 52.5155 66.5778 52.5959C66.4244 52.2333 66.4244 52.2333 67.0738 51.8903L67.0809 51.8957C67.0827 51.9689 67.0845 52.0422 67.088 52.1154Z" fill="#373739"/>
<path d="M67.5984 51.5237C67.6448 51.22 67.8642 51.1164 68.1585 51.0485C68.1407 51.4165 67.8892 51.4933 67.618 51.5469L67.5984 51.5237Z" fill="#373739"/>
<path d="M67.2505 51.7104C67.3254 51.5729 67.4539 51.5318 67.5984 51.5211C67.5984 51.5211 67.618 51.5443 67.6198 51.5443C67.5341 51.6747 67.4057 51.7158 67.2594 51.7176L67.2505 51.7104Z" fill="#373739"/>
<path d="M66.3567 59.5793C66.2996 59.5168 66.2443 59.4543 66.1873 59.3917L66.2408 59.3435C66.2996 59.3989 66.3603 59.4543 66.4192 59.5078C66.3995 59.5329 66.3781 59.5561 66.3567 59.5793Z" fill="#373739"/>
<path d="M67.2575 51.72C67.1987 51.7789 67.1398 51.8379 67.0792 51.8968L67.072 51.8915C67.1309 51.8325 67.1898 51.7718 67.2486 51.7128C67.2504 51.711 67.2575 51.72 67.2575 51.72Z" fill="#373739"/>
<path d="M52.7885 55.6255C52.5387 55.7166 52.2961 55.8488 52.0392 55.8917C51.3167 56.0149 50.8262 55.5201 50.9421 54.7984C51.0295 54.25 51.447 53.6927 50.7655 53.1978C50.6139 53.0889 50.9475 52.9531 51.0402 52.8191C51.3649 52.7923 51.6878 52.7477 52.0125 52.7423C52.6333 52.7334 53.197 52.8602 53.4949 53.4979C53.7874 54.1232 53.5341 54.6501 53.1863 55.1521C53.0703 55.32 52.9223 55.4683 52.7885 55.6255Z" fill="#FDFCFC"/>
<path d="M55.2786 52.809C55.473 51.9658 56.0688 51.7354 56.8127 51.9176C57.446 52.0712 57.694 52.6053 57.6048 53.2181C57.5013 53.938 57.0143 54.2649 56.2936 54.247C56.1473 54.2434 55.9993 54.2399 55.853 54.2363C55.63 53.7718 55.9689 53.0823 55.2786 52.809Z" fill="#D73C30"/>
<path d="M55.2786 52.8083C55.9707 53.0816 55.6318 53.7711 55.8548 54.2338C55.8155 54.2749 55.7692 54.3124 55.7353 54.3588C55.4962 54.6911 55.5283 55.386 54.8612 55.1556C54.4972 55.0305 54.4366 53.8569 54.7202 53.4746C54.8915 53.2424 55.0913 53.0298 55.2786 52.8083Z" fill="#7C8C57"/>
<path d="M54.2208 57.8644C53.4733 57.7304 53.2628 57.2427 53.3645 56.5532C53.6856 56.271 54.0281 56.0423 54.4812 56.2209C54.8095 56.3513 55.0253 56.6318 55.0432 56.9605C55.0699 57.5 54.6418 57.6965 54.2208 57.8644Z" fill="#D73C30"/>
<path d="M47.0995 14.3591C47.5473 14.7646 48.0824 14.4591 48.573 14.5323C48.8816 14.5788 49.2027 14.5413 49.5167 14.5413C49.5185 14.6217 49.5203 14.7021 49.5238 14.7824C48.9209 14.7824 48.3144 14.7628 47.7132 14.7932C47.5098 14.8039 47.1405 14.5788 47.1316 15.0593C47.0888 15.1076 47.046 15.1576 47.0014 15.2058C46.8212 14.9521 46.2076 14.8199 46.7677 14.3626C46.8783 14.3609 46.9889 14.3591 47.0995 14.3591Z" fill="#E8E2E2"/>
<path d="M47.0994 14.3603C46.9888 14.362 46.8782 14.362 46.7676 14.3638C47.1261 13.919 47.515 13.5082 48.0252 13.2224C47.8897 13.744 47.4579 14.0226 47.0994 14.3603Z" fill="#DDC298"/>
<path d="M47.8505 15.7692C47.97 15.8335 48.1288 15.9246 47.9914 16.055C47.8505 16.1908 47.7845 15.9782 47.6953 15.9014C47.747 15.8568 47.7988 15.8121 47.8505 15.7692Z" fill="#E8E2E2"/>
<path d="M47.5383 15.7421C47.4723 15.676 47.4063 15.6099 47.342 15.5438C47.3938 15.4992 47.4437 15.4545 47.4955 15.4099C47.5543 15.4688 47.6132 15.5278 47.6738 15.5885C47.6275 15.6403 47.5829 15.6921 47.5383 15.7421Z" fill="#E8E2E2"/>
<path d="M47.3403 15.5447C47.2797 15.4858 47.2208 15.425 47.1602 15.3661C47.2119 15.3214 47.2636 15.2768 47.3154 15.2321C47.3742 15.2911 47.4349 15.3518 47.4937 15.4108C47.4438 15.4554 47.3921 15.5001 47.3403 15.5447Z" fill="#E8E2E2"/>
<path d="M47.1619 15.3657C47.1084 15.3121 47.0549 15.2603 47.0032 15.2067C47.046 15.1585 47.0888 15.1085 47.1334 15.0602C47.1958 15.1174 47.2565 15.1764 47.3189 15.2335C47.2654 15.2764 47.2137 15.321 47.1619 15.3657Z" fill="#E8E2E2"/>
<path d="M47.6722 15.5876C47.7311 15.6465 47.7917 15.7073 47.8506 15.7662C47.7989 15.8109 47.7471 15.8538 47.6954 15.8984C47.6419 15.8448 47.5901 15.793 47.5366 15.7394C47.583 15.6912 47.6276 15.6394 47.6722 15.5876Z" fill="#E8E2E2"/>
<path d="M53.2824 26.3406C53.7712 26.2924 53.8265 25.5242 54.4206 25.6529C54.7756 25.7654 55.1323 25.8779 55.4873 25.9905L55.4802 25.9851C55.5712 26.0459 55.6621 26.1084 55.7549 26.1691C55.903 26.337 56.0493 26.505 56.1973 26.6747C55.4053 26.6889 54.6114 26.7175 53.8194 26.7086C53.5964 26.7032 53.1843 26.8622 53.2824 26.3406Z" fill="#DDC298"/>
<path d="M58.3346 25.6355C58.3952 25.6944 58.4559 25.7534 58.5165 25.8123C58.5112 26.1017 58.5058 26.3929 58.5023 26.6823C58.1526 26.6859 57.8012 26.6894 57.4515 26.693C57.3784 26.2839 57.3177 25.8677 56.9021 25.6355L56.9075 25.6444C57.1304 25.1264 57.5835 25.2871 57.9796 25.2782C58.0973 25.3961 58.2151 25.5158 58.3346 25.6355Z" fill="#DDC298"/>
<path d="M49.4863 26.6608C49.6148 26.0927 49.9716 25.7837 50.5513 25.7908C51.1222 25.798 51.4914 26.0945 51.6181 26.6661C50.9081 26.6661 50.1963 26.6626 49.4863 26.6608Z" fill="#E3B832"/>
<path d="M56.1955 26.672C56.0475 26.5041 55.9012 26.3362 55.7531 26.1665C55.6622 26.1057 55.5712 26.0432 55.4784 25.9825L55.4856 25.9878C55.4838 25.8664 55.482 25.7467 55.4802 25.6252L55.4749 25.6359C55.9512 25.4394 56.4275 25.4519 56.902 25.6413L56.8966 25.6324C56.9573 25.9307 57.0161 26.2308 57.0768 26.5291C57.0179 26.5773 56.9608 26.6256 56.902 26.6738C56.6683 26.6738 56.4328 26.672 56.1955 26.672Z" fill="#ECE1CF"/>
<path d="M57.0803 26.5293C57.0197 26.2309 56.9608 25.9308 56.9001 25.6325C57.3158 25.8647 57.3764 26.281 57.4496 26.69C57.3265 26.6918 57.2052 26.6918 57.0821 26.6936C57.0946 26.64 57.0946 26.5846 57.0803 26.5293Z" fill="#B08B74"/>
<path d="M57.0803 26.529C57.0946 26.5844 57.0946 26.638 57.0821 26.6933C57.0233 26.6862 56.9644 26.679 56.9055 26.6737C56.9644 26.6255 57.0215 26.5772 57.0803 26.529Z" fill="#DDC298"/>
<path d="M72.3969 74.6322C72.438 74.7287 72.4772 74.8233 72.5182 74.9198C72.5664 75.1627 72.4861 75.3485 72.2667 75.47C72.1632 75.495 72.0616 75.52 71.9581 75.545C71.7779 75.5432 71.6245 75.4896 71.5335 75.3182C71.505 75.1681 71.6245 74.9019 71.4229 74.893C71.1643 74.8823 71.2945 75.1181 71.3248 75.2646C70.9555 75.4146 70.5345 75.7326 70.2794 75.161C70.0921 74.7429 70.3508 74.4929 70.7736 74.4285C71.0644 74.3839 70.9448 74.2017 70.9288 74.0391C70.9038 73.7801 70.9877 73.5568 71.2588 73.4961C71.5407 73.4335 71.7922 73.4925 71.8457 73.848C71.6887 73.9677 71.5264 74.082 71.3748 74.2088C71.2838 74.2856 71.2053 74.4 71.3248 74.4982C71.4586 74.609 71.5924 74.5286 71.7084 74.4357C71.9617 74.4196 72.2007 74.45 72.3969 74.6322Z" fill="#455571"/>
<path d="M72.9214 73.841C72.8768 73.8839 72.834 73.9285 72.7894 73.9714C72.4433 74.1357 72.1971 73.9982 72.1365 73.6588C72.0812 73.3569 72.2846 73.18 72.6021 73.1693L72.5985 73.1568C72.8411 72.9675 73.0998 74.2054 73.3335 73.1497L73.3157 73.155C73.676 73.1693 74.1577 72.9693 74.2469 73.5427C74.3325 74.0893 73.8865 74.1357 73.5012 74.2054C73.5012 74.2054 73.5119 74.2179 73.5119 74.2197C73.5262 74.0786 73.4316 74.0464 73.3228 74.0321L73.3335 74.0411C73.2586 73.8392 73.2051 73.6016 72.9214 73.841Z" fill="#455571"/>
<path d="M73.1176 75.2125C73.5939 75.0589 73.7937 75.3161 73.8079 75.7342C73.8169 75.9914 73.6242 76.1861 73.3548 76.1932C72.891 76.204 72.7215 75.9449 72.8107 75.5001C72.957 75.4519 73.0712 75.3697 73.1176 75.2125Z" fill="#455571"/>
<path d="M72.6074 72.4347C72.2934 72.6366 71.9705 72.9295 71.6744 72.4276C71.5317 72.1864 71.6227 71.9363 71.8564 71.8399C72.4379 71.6023 72.5467 72.0042 72.5949 72.449L72.6074 72.4347Z" fill="#7C8C57"/>
<path d="M72.5948 72.4517C72.866 72.2856 73.1478 72.0409 73.4404 72.3749C73.6901 72.659 73.4796 72.9144 73.3119 73.1556L73.3298 73.1502C73.0854 73.2163 72.8374 72.9716 72.5948 73.1573L72.5984 73.1699C72.8338 72.9269 72.5306 72.6804 72.6055 72.4357C72.6073 72.4357 72.5948 72.4517 72.5948 72.4517Z" fill="#7C8C57"/>
<path d="M70.1511 73.1657C70.474 73.1782 70.6417 73.3229 70.6506 73.5926C70.6577 73.8177 70.5328 73.9839 70.2991 74.0196C70.0191 74.0625 69.8443 73.9053 69.805 73.648C69.7604 73.3711 69.9656 73.2461 70.1511 73.1657Z" fill="#455571"/>
<path d="M71.7082 74.437C71.5922 74.5299 71.4584 74.6121 71.3247 74.4995C71.2069 74.4013 71.2854 74.287 71.3746 74.2102C71.5262 74.0833 71.6868 73.969 71.8456 73.8493C71.9526 74.0815 71.7153 74.2334 71.7082 74.437Z" fill="#373739"/>
<path d="M71.96 75.5454C72.0634 75.5204 72.1651 75.4954 72.2686 75.4704C72.2168 75.6437 72.5754 75.8759 72.2721 75.9688C72.0117 76.0492 72.0759 75.6865 71.96 75.5454Z" fill="#7C8C57"/>
<path d="M71.3248 75.2661C71.2944 75.1197 71.1642 74.8839 71.4229 74.8946C71.6245 74.9017 71.505 75.1679 71.5335 75.3197C71.4639 75.3019 71.3943 75.284 71.3248 75.2661Z" fill="#7C8C57"/>
<path d="M73.1176 75.2126C73.0712 75.368 72.9589 75.452 72.8108 75.5002C72.8358 75.3216 72.9642 75.2537 73.1176 75.2126Z" fill="#7C8C57"/>
<path d="M50.6796 56.2145C50.9704 56.236 51.2772 56.2056 51.5448 56.2931C51.9872 56.436 52.592 56.6343 52.6437 57.0541C52.6954 57.4846 52.0015 57.3882 51.6875 57.6186C51.1738 57.6579 50.8384 57.365 50.487 57.0398C50.0178 56.6075 50.214 56.395 50.6796 56.2145Z" fill="#7C8C57"/>
<path d="M67.4092 38.3083C67.8748 38.0367 68.2565 38.1225 68.5527 38.5744C68.4082 38.7299 68.2637 38.8853 68.1174 39.0407C67.7178 38.9549 67.493 38.7013 67.4092 38.3083Z" fill="#E3B832"/>
<path d="M55.6658 38.8149C55.73 38.6435 55.7942 38.472 55.8584 38.3005C57.4711 39.1544 57.7208 39.7885 57.1375 41.4927C57.0929 41.6231 57.1232 41.7785 57.1179 41.9232L57.1 41.9C56.5631 41.9714 56.4221 42.3466 56.399 42.8146L56.3847 42.7932C56.019 42.8057 55.9887 43.0432 56.0297 43.3273H56.0279C55.8299 43.3755 55.8227 43.5202 55.8495 43.6828V43.6845C55.6461 43.7328 55.6444 43.881 55.6693 44.0436L55.6711 44.0418C55.5534 44.0347 55.4999 44.099 55.4874 44.2079L55.4785 44.2169C55.1092 44.5295 54.508 44.4169 54.2333 44.8993C54.0727 44.901 53.914 44.9028 53.7534 44.9064C53.8605 44.7385 53.9675 44.5688 54.0745 44.4009C54.285 44.174 54.3921 43.8971 54.3921 43.5952C54.3938 42.9361 54.7274 42.4377 55.127 41.9625C56.1546 42.0572 56.9056 41.6088 57.0447 40.8174C57.1732 40.0815 56.597 39.3902 55.6658 39.1651C55.664 39.049 55.6658 38.9328 55.6658 38.8149Z" fill="#C4D470"/>
<path d="M46.7782 41.3924C46.8245 41.3799 46.8709 41.3674 46.9173 41.3513L46.9155 41.3495C46.9815 41.8283 47.0475 42.3088 47.1135 42.7876C47.3116 43.6772 47.7272 43.8951 49.0794 43.8201C49.9464 44.0791 50.8383 44.1523 51.7356 44.1934C52.1745 44.5346 52.6882 44.322 53.1645 44.3899C53.1699 44.4632 53.1735 44.5364 53.1788 44.6096C53.177 44.6489 53.177 44.6882 53.177 44.7258C52.7578 45.0687 52.2565 44.9312 51.8123 44.8883C50.4387 44.7543 49.0402 44.7633 47.7076 44.3238C46.3572 43.8772 46.0396 43.1377 46.6176 41.8015C46.6747 41.6693 46.7246 41.53 46.7782 41.3924Z" fill="#DDC298"/>
<path d="M59.6117 42.8069C59.5439 42.3156 59.7419 41.8619 59.8079 41.3903C60.6178 41.8405 60.7035 42.6676 60.7695 43.4393C60.8176 44.0055 60.311 44.2396 59.8187 44.3199C58.8571 44.4754 57.8885 44.5915 56.9234 44.7254C56.9198 44.6183 56.9162 44.5093 56.9109 44.4003L56.9162 44.3932C57.0429 44.4057 57.0982 44.3485 57.0857 44.2235L57.0928 44.2163C57.2088 44.2074 57.3248 44.1985 57.4425 44.1895C57.5014 44.1342 57.5602 44.0788 57.6191 44.0216L57.6066 44.027C58.7733 43.9734 59.3441 43.625 59.6117 42.8069Z" fill="#DDC298"/>
<path d="M54.2317 44.9008C54.5064 44.4185 55.1094 44.5311 55.4769 44.2184C55.4661 44.331 55.4554 44.4417 55.4447 44.5543C55.0719 44.7829 54.7026 45.0205 54.2317 44.9008Z" fill="#7C8C57"/>
<path d="M53.1755 44.7293C53.1755 44.69 53.1773 44.6507 53.1773 44.6114C53.4538 44.5221 53.7285 44.4345 54.0051 44.3452L54.0728 44.4006C53.9658 44.5685 53.8588 44.7382 53.7517 44.9061C53.527 44.9526 53.345 44.8579 53.1755 44.7293Z" fill="#7C8C57"/>
<path d="M56.9126 44.3981C56.9162 44.5071 56.9198 44.6143 56.9251 44.7232C56.6914 44.7304 56.4577 44.7393 56.2258 44.7465C56.4114 44.5464 56.6343 44.4178 56.9126 44.3981Z" fill="#7C8C57"/>
<path d="M66.1125 56.1584C66.4907 55.5992 66.5085 54.9312 66.6673 54.3041C66.7458 54.1594 66.8243 54.0165 66.9028 53.8718C66.9616 53.8058 67.0205 53.7397 67.0794 53.6718L67.0705 53.6789C67.4147 53.4949 67.759 53.3127 68.1033 53.1287C68.2478 53.1377 68.3923 53.1484 68.5368 53.1573C68.5279 53.2716 68.5208 53.386 68.5118 53.4985C68.3406 53.6325 68.0106 53.7057 68.1533 53.9969C68.2603 54.2148 68.4672 54.4417 68.7955 54.3202C69.1594 54.1862 69.5287 54.172 70.0763 54.2863C69.2646 54.5239 69.7463 54.9061 69.7963 55.242C69.006 55.3885 68.2157 55.5367 67.4254 55.6832C67.693 55.3277 67.0936 54.7007 67.8233 54.4596C67.9749 54.4095 67.7608 54.2309 67.6752 54.1255C67.5628 53.988 67.4504 53.9647 67.3041 54.0844C67.0383 54.3024 66.8831 54.5882 66.8296 54.9169C66.6673 55.9047 66.5228 56.8961 66.3729 57.8876C66.3123 58.2931 66.4746 58.402 66.8742 58.327C67.4486 58.218 67.9909 57.9126 68.6028 58.0323C68.4119 58.1948 68.2228 58.3592 68.032 58.5217C67.3523 58.4056 66.7155 58.6843 66.0554 58.7343C65.8913 58.2002 66.1214 57.7107 66.2374 57.2123C66.3266 56.8372 66.4086 56.4799 66.1125 56.1584Z" fill="#C4D470"/>
<path d="M68.1032 53.1313C67.7589 53.3152 67.4146 53.4975 67.0703 53.6814C67.2576 52.9294 67.8035 52.5882 68.5064 52.4274C68.5581 52.7686 68.1906 52.8687 68.1032 53.1313Z" fill="#D73C30"/>
<path d="M68.6846 52.2458C68.7024 52.3869 68.6346 52.4423 68.4991 52.4316C68.4973 52.3047 68.574 52.2583 68.6846 52.2458Z" fill="#D73C30"/>
<path d="M67.0775 53.6736C67.0186 53.7397 66.9597 53.8058 66.9009 53.8737C66.9134 53.7647 66.9455 53.6754 67.0775 53.6736Z" fill="#D73C30"/>
<path d="M68.8631 52.0661C68.8934 52.2197 68.8167 52.268 68.6758 52.2537C68.7382 52.1911 68.8007 52.1286 68.8631 52.0661Z" fill="#D73C30"/>
<path d="M54.8326 24.4042C55.0859 24.4042 55.3392 24.4042 55.5925 24.4042C55.5943 24.4328 55.5979 24.4614 55.5997 24.49C55.3338 24.49 55.068 24.49 54.8022 24.49C54.8129 24.4614 54.8237 24.4328 54.8326 24.4042Z" fill="#D5CFCF"/>
<path d="M55.4821 25.6286C55.4839 25.7501 55.4856 25.8698 55.4874 25.9912C55.1324 25.8787 54.7757 25.7662 54.4207 25.6536C54.7757 25.6447 55.1289 25.6375 55.4821 25.6286Z" fill="#B08B74"/>
<path d="M53.6625 24.8356C53.7338 24.8624 53.8034 24.8892 53.8748 24.9178L53.8801 24.9232C53.8462 24.9857 53.8123 25.0482 53.7784 25.1107C53.7321 25.025 53.6857 24.941 53.6375 24.8553C53.6339 24.8553 53.6625 24.8356 53.6625 24.8356Z" fill="#D5CFCF"/>
<path d="M54.2385 24.7446C54.119 24.8036 53.9977 24.8625 53.8782 24.9215L53.8728 24.9161C53.9905 24.8554 54.1083 24.7929 54.2242 24.7321L54.2385 24.7446Z" fill="#D5CFCF"/>
<path d="M54.2263 24.7347C54.2408 24.7129 54.2571 24.6894 54.2716 24.6677C54.2607 24.6948 54.2498 24.7202 54.239 24.7474L54.2263 24.7347Z" fill="#D5CFCF"/>
<path d="M57.1179 41.925C57.6281 41.6678 57.7726 41.2016 57.8404 40.6442C58.0081 41.0069 58.347 41.1944 58.5539 41.4981C58.3185 42.0733 57.9456 42.4824 57.2927 42.5574C56.8806 42.4431 56.993 42.1716 57.0983 41.9018L57.1179 41.925Z" fill="#FDFCFC"/>
<path d="M57.0982 41.902C56.9947 42.1718 56.8806 42.4415 57.2927 42.5576C57.1392 42.8488 56.9609 42.6595 56.786 42.5826C56.7058 42.6416 56.6273 42.7023 56.5488 42.7613C56.5488 42.7613 56.5184 42.7863 56.5202 42.7863C56.4846 42.8131 56.4435 42.822 56.3989 42.8167C56.4203 42.3486 56.563 41.9735 57.0982 41.902Z" fill="#7C8C57"/>
<path d="M57.4444 44.1873C57.3284 44.1963 57.2125 44.2052 57.0947 44.2141C57.3891 43.839 57.4158 43.1263 58.1847 43.3513L58.2007 43.371C58.0545 43.6354 57.6816 43.6961 57.6103 44.0266L57.6228 44.0212C57.5621 44.0766 57.5032 44.132 57.4444 44.1873Z" fill="#7C8C57"/>
<path d="M56.3384 43.113C56.4044 43.5488 56.1868 43.8257 55.8318 44.0276L55.8354 44.0312C55.8389 43.9151 55.8443 43.7989 55.8478 43.6828V43.681C56.0334 43.6257 56.0566 43.4899 56.0262 43.3256H56.028C56.1315 43.2541 56.2349 43.1826 56.3384 43.113Z" fill="#ECE1CF"/>
<path d="M58.1846 43.3515C58.165 42.9371 58.4219 42.9335 58.718 42.9907C58.545 43.1175 58.3737 43.2443 58.2007 43.3712L58.1846 43.3515Z" fill="#7C8C57"/>
<path d="M56.397 42.8152C56.4416 42.8224 56.4826 42.8116 56.5183 42.7849C56.5344 42.9367 56.5344 43.0796 56.3381 43.1118V43.11C56.3524 43.0028 56.3667 42.8974 56.3827 42.7902L56.397 42.8152Z" fill="#ECE1CF"/>
<path d="M55.8316 44.0273C55.8191 44.1023 55.8066 44.1756 55.7941 44.2488C55.7549 44.2274 55.7156 44.2077 55.6764 44.1881C55.6942 44.138 55.6925 44.088 55.6693 44.0398L55.6675 44.0416L55.7513 44.0434L55.8334 44.0291L55.8316 44.0273Z" fill="#ECE1CF"/>
<path d="M55.6693 44.0412C55.6925 44.0895 55.6943 44.1395 55.6765 44.1895C55.6123 44.1949 55.5498 44.202 55.4856 44.2092C55.4981 44.0984 55.5516 44.0341 55.6693 44.0412Z" fill="#7C8C57"/>
<path d="M58.718 42.9907C58.718 42.8657 58.7822 42.8139 58.9035 42.8282V42.83C58.8429 42.8836 58.7805 42.9371 58.718 42.9907Z" fill="#7C8C57"/>
<path d="M57.0874 44.2224C57.0999 44.3492 57.0428 44.4046 56.918 44.3921C56.9751 44.3349 57.0304 44.2795 57.0874 44.2224Z" fill="#7C8C57"/>
<path d="M56.5488 42.7604C56.6273 42.6996 56.7058 42.6407 56.7861 42.5817C56.7076 42.6407 56.6291 42.7014 56.5488 42.7604Z" fill="#ECE1CF"/>
<path d="M69.7961 55.2444C69.7461 54.9086 69.2645 54.5263 70.0761 54.2887C69.5285 54.1726 69.1592 54.1887 68.7953 54.3227C68.4671 54.4441 68.2601 54.2173 68.1531 53.9993C68.0104 53.7081 68.3386 53.6349 68.5117 53.5009C69.0504 53.4866 69.5998 54.0011 70.1297 53.4724C70.2331 53.5349 70.3366 53.5992 70.4418 53.6617C70.4418 54.228 70.7219 54.6067 71.2232 54.8389C71.2642 55.591 71.1233 56.3073 70.82 56.995C70.4633 57.3398 70.185 57.7685 69.739 58.0186C69.3608 58.024 68.9826 58.0293 68.6044 58.0347C67.9925 57.915 67.4485 58.2223 66.8758 58.3294C66.4744 58.4045 66.3121 58.2937 66.3745 57.89C66.5244 56.9004 66.6707 55.9089 66.8312 54.9193C66.8847 54.5906 67.0399 54.3048 67.3057 54.0869C67.452 53.9672 67.5644 53.9922 67.6768 54.1279C67.7624 54.2315 67.9783 54.4102 67.8249 54.462C67.0952 54.7031 67.6964 55.3302 67.4288 55.6856C67.3646 55.7696 67.2986 55.8553 67.2344 55.9393C67.3432 55.9679 67.452 55.9983 67.5591 56.0268C67.873 56.636 67.9283 57.1451 66.9971 57.3219C67.9426 57.3934 68.8096 57.2487 69.5588 56.8718C69.8282 56.736 69.8121 56.0322 69.9263 55.5874C70.0583 55.4088 70.0208 55.2909 69.7961 55.2444Z" fill="#DDC298"/>
<path d="M71.2215 54.8383C70.722 54.6061 70.4402 54.2273 70.4402 53.6611C70.392 52.9019 71.0021 52.7393 71.507 52.4785C72.3186 52.3374 72.6433 52.9001 72.9537 53.4842C72.9073 54.2952 72.4917 54.7847 71.6943 54.9437C71.5373 54.9097 71.3803 54.874 71.2215 54.8383Z" fill="#C84E0B"/>
<path d="M70.1297 53.4708C69.5999 53.9996 69.0505 53.4851 68.5117 53.4994C68.5206 53.3851 68.5278 53.2707 68.5367 53.1582C68.9202 52.7616 69.3519 52.4812 69.9353 52.5383C70.6042 52.7223 70.103 53.1528 70.1297 53.4708Z" fill="#7C8C57"/>
<path d="M48.3605 39.7626C48.4211 39.7054 48.4818 39.6465 48.5424 39.5893C48.7851 39.5625 48.9652 39.4482 49.0705 39.2249C49.1882 39.1642 49.306 39.1034 49.4255 39.0427C50.4387 38.6676 51.3806 38.0888 52.4849 37.9763C52.5241 38.0888 52.5634 38.2031 52.6026 38.3157C52.599 38.3871 52.5955 38.4586 52.5901 38.53C51.8801 38.4693 51.2558 38.7408 50.6421 39.0463C50.3478 39.1928 50.0249 39.3303 50.1551 39.768C49.8108 39.7126 49.5254 39.7965 49.3452 40.1181C48.3783 40.3432 48.3444 41.1042 48.3373 41.8794C47.8039 41.8598 47.4953 41.2417 46.9155 41.3489L46.9173 41.3507C47.1885 40.8112 47.8806 40.5861 47.9894 39.9234C48.1446 39.9448 48.2713 39.8966 48.3605 39.7626Z" fill="#DDC298"/>
<path d="M52.6026 38.3155C52.5634 38.203 52.5241 38.0886 52.4849 37.9761C52.7632 37.9761 53.0414 37.9743 53.3215 37.9743C53.5053 38.0547 53.689 38.1351 53.871 38.2137C54.0386 38.3119 54.2063 38.412 54.374 38.5102C54.5274 38.7478 54.6791 38.9836 54.8325 39.2212C54.7718 39.2801 54.7112 39.3391 54.6505 39.398C54.1492 38.6942 53.5356 38.2012 52.6026 38.3155Z" fill="#7C8C57"/>
<path d="M54.8308 39.223C54.6774 38.9854 54.5257 38.7478 54.3723 38.512C54.8522 38.4066 55.2161 38.7925 55.6656 38.8157C55.6656 38.9318 55.6639 39.0497 55.6639 39.1658C55.3856 39.1855 55.1091 39.2033 54.8308 39.223Z" fill="#E8E2E2"/>
<path d="M53.8693 38.2152C53.6855 38.1348 53.5036 38.0544 53.3198 37.9758C53.5375 37.9758 53.7712 37.9401 53.8693 38.2152Z" fill="#C4D470"/>
<path d="M58.7182 42.9921C58.7806 42.9385 58.8412 42.8849 58.9037 42.8313C59.1392 42.8117 59.3853 43.1189 59.6119 42.8063C59.3461 43.6263 58.7752 43.9746 57.6104 44.0282C57.6817 43.6959 58.0545 43.6352 58.2008 43.3726C58.3739 43.2458 58.5469 43.1189 58.7182 42.9921Z" fill="#FDFCFC"/>
<path d="M72.9214 73.842C73.2068 73.6027 73.2585 73.842 73.3317 74.0421C73.123 74.1207 72.966 74.0957 72.9214 73.842Z" fill="#E8E2E2"/>
<path d="M73.3211 74.0309C73.4317 74.0452 73.5262 74.0773 73.5102 74.2184C73.3621 74.2417 73.2908 74.1881 73.3211 74.0309Z" fill="#E8E2E2"/>
<path d="M75.2264 13.5414C75.4208 13.8505 75.4993 14.1881 75.4815 14.5507C75.3423 14.908 75.0979 15.1581 74.7394 15.2956C74.1989 15.3153 73.719 15.2028 73.5245 14.6222C73.3818 14.1953 73.455 13.7898 73.8278 13.4968C74.2988 13.1324 74.7679 13.2556 75.2264 13.5414Z" fill="#FDFCFC"/>
<path d="M62.2502 83.3113C62.2377 83.6329 62.1324 83.9133 61.7649 83.9133C61.3315 83.9133 61.2637 83.5543 61.2637 83.2292C61.2637 82.8898 61.3885 82.5486 61.8078 82.5843C62.2216 82.6182 62.2644 82.9666 62.2502 83.3113Z" fill="#373739"/>
<path d="M59.0373 83.3582C59.0195 83.6083 58.941 83.9049 58.5521 83.9067C58.1168 83.9084 58.0169 83.5762 58.0276 83.2296C58.0365 82.8849 58.1525 82.5437 58.5788 82.5651C59.0141 82.5883 59.0534 82.9385 59.0373 83.3582Z" fill="#373739"/>
<path d="M50.3141 72.7911C49.8735 72.341 49.5113 71.8354 49.2883 71.2442C48.9351 70.3045 49.2241 69.4006 50.018 68.913C50.7993 68.4324 51.7198 68.6182 52.3905 69.3917C52.4851 69.5007 52.5796 69.6114 52.7027 69.7508C53.0881 69.3024 53.3753 68.7826 53.9907 68.6825C54.6775 68.57 55.293 68.6897 55.7693 69.2417C56.267 69.8169 56.3223 70.4778 56.0886 71.1656C55.8246 71.9408 55.3233 72.5678 54.7578 73.1448C54.6971 73.0841 54.6365 73.0216 54.5758 72.9608C54.7078 72.7643 54.8523 72.5732 54.9719 72.3696C55.507 71.4532 55.425 70.5832 54.7721 70.133C54.1352 69.6936 53.452 69.8705 52.692 70.6868C52.6135 70.5975 52.5368 70.5082 52.4583 70.4224C51.9214 69.8294 51.2792 69.7222 50.6263 70.1563C49.9609 70.5975 49.8752 71.2531 50.1821 71.9641C50.2748 72.182 50.4015 72.3839 50.5121 72.5946C50.4443 72.659 50.3801 72.725 50.3141 72.7911Z" fill="#FDFCFC"/>
<path d="M50.3142 72.7917C50.3802 72.7256 50.4462 72.6595 50.5104 72.5934C50.8547 72.8239 51.0563 73.3026 51.5843 73.2115C51.6182 73.2383 51.6486 73.2687 51.6735 73.3026C51.6182 73.6438 51.8198 73.8796 52.0107 74.1208C51.9625 74.1708 51.9162 74.2208 51.868 74.2708C51.2383 73.8957 50.7388 73.383 50.3142 72.7917Z" fill="#ECE1CF"/>
<path d="M54.5758 72.9608C54.6364 73.0216 54.6971 73.0841 54.7577 73.1448C54.3813 73.6664 53.9478 74.1273 53.377 74.4417C53.3288 74.3899 53.2789 74.3381 53.2307 74.2863C53.6803 73.8451 54.128 73.4038 54.5758 72.9608Z" fill="#ECE1CF"/>
<path d="M53.3771 74.4424C53.0007 74.8765 52.6207 75.2212 52.1997 74.487C52.239 74.4424 52.2764 74.3959 52.3121 74.3495C52.635 74.5764 52.9365 74.4924 53.2308 74.2888C53.279 74.3388 53.3289 74.3906 53.3771 74.4424Z" fill="#ECE1CF"/>
<path d="M52.1996 74.4852C52.089 74.4137 51.9802 74.3423 51.8696 74.2708C51.916 74.2208 51.9642 74.1708 52.0106 74.1208C52.1105 74.1976 52.2121 74.2726 52.312 74.3477C52.2764 74.3941 52.2389 74.4405 52.1996 74.4852Z" fill="#ECE1CF"/>
<path d="M72.0687 39.3804C71.8403 39.359 71.6405 39.2768 71.6334 39.0374C71.6227 38.7248 71.8689 38.6873 72.115 38.6855C72.3238 38.6837 72.5539 38.6819 72.5343 38.9749C72.5146 39.2464 72.3184 39.3626 72.0687 39.3804Z" fill="#7C8C57"/>
<path d="M69.7373 58.0162C70.1833 57.7661 70.4616 57.3392 70.8184 56.9926C71.539 56.6229 72.1741 56.8319 72.7717 57.2838C72.7699 57.5482 72.7682 57.8126 72.7682 58.0769C72.5434 57.8126 72.3721 57.4928 72.0278 57.3499C71.8655 57.282 71.6193 57.1998 71.589 57.4196C71.5266 57.8733 71.9279 58.1502 72.1955 58.4021C72.4471 58.6396 72.745 58.4789 72.7628 58.068C72.8913 58.1609 73.0179 58.2556 73.1463 58.3485C72.6522 59.9365 71.6532 60.2491 70.3117 59.2345C70.2939 58.7468 69.9585 58.4092 69.7373 58.0162Z" fill="#E3B832"/>
<path d="M71.6941 54.9462C72.4915 54.7854 72.9089 54.2959 72.9535 53.4867C74.3967 53.4563 75.0746 54.4442 74.4895 55.725C74.4217 55.8715 74.2379 55.9947 74.386 56.1895L74.3967 56.1841C74.2522 56.0448 74.1291 56.1644 74.0007 56.2163C72.7466 56.7236 71.9474 56.2841 71.6941 54.9462ZM74.2683 54.7711C74.1416 54.3263 73.8383 54.0333 73.3727 53.9315C73.1908 53.8922 73.0588 54.0726 73.1408 54.1905C73.3745 54.5299 73.4744 55.0158 73.9775 55.0962C74.1755 55.1284 74.32 55.0355 74.2683 54.7711Z" fill="#E3B832"/>
<path d="M69.7373 58.0153C69.9585 58.4065 70.2939 58.7459 70.3135 59.2336C69.9888 60.4072 69.5072 60.6591 68.3262 60.2768L68.3369 60.3018C68.2424 60.2358 68.1496 60.1679 68.0551 60.1018C67.9819 59.9535 67.907 59.8052 67.8339 59.6552C67.8214 59.5623 67.8089 59.4712 67.7964 59.3783C67.8749 59.0943 67.9534 58.8085 68.0336 58.5244C68.2245 58.3619 68.4136 58.1975 68.6045 58.035C68.9809 58.0278 69.3591 58.0225 69.7373 58.0153Z" fill="#C84E0B"/>
<path d="M73.1479 58.3485C73.0195 58.2556 72.8928 58.161 72.7644 58.0681L72.768 58.0788C72.7698 57.8144 72.7715 57.55 72.7715 57.2856C73.2247 56.4175 73.4423 57.5536 73.8597 57.3589C73.7794 56.8909 74.2147 56.5979 74.3985 56.1835L74.3878 56.1888C75.3065 56.3014 74.8676 56.9284 74.7963 57.3625C74.716 57.8573 74.1612 58.0538 73.9668 58.5468C73.8401 58.863 73.4459 58.3789 73.1479 58.3485ZM73.9882 57.7644C73.9775 57.7394 73.9668 57.7126 73.9561 57.6876C73.9382 57.7037 73.9043 57.7233 73.9079 57.7322C73.9204 57.7715 73.9436 57.8073 73.965 57.843C73.9721 57.8162 73.981 57.7912 73.9882 57.7644Z" fill="#7C8C57"/>
<path d="M67.7963 59.3781C67.8088 59.471 67.8213 59.5639 67.8338 59.655C67.3396 59.8337 66.874 59.7372 66.4209 59.5085C66.3621 59.4532 66.3014 59.3978 66.2425 59.3442C66.1855 59.1656 66.1284 58.9869 66.0713 58.8083C66.5868 59.1763 67.0988 59.5603 67.7963 59.3781Z" fill="#C4D470"/>
<path d="M68.0549 60.1013C68.1495 60.1674 68.2422 60.2352 68.3368 60.3013C68.1548 60.3567 68.1334 60.1888 68.0549 60.1013Z" fill="#FDFCFC"/>
<path d="M67.7963 59.3774C67.0988 59.5579 66.5868 59.1756 66.0694 58.8076L66.0552 58.7343C66.717 58.6843 67.3521 58.4057 68.0317 58.5218C67.9532 58.8076 67.8748 59.0934 67.7963 59.3774Z" fill="#DDC298"/>
<path d="M55.4802 25.9841C55.5712 26.0448 55.6622 26.1073 55.7549 26.1681C55.6622 26.1073 55.5712 26.0466 55.4802 25.9841Z" fill="#B08B74"/>
<path d="M72.5969 73.1567C72.8395 72.971 73.0875 73.2157 73.3319 73.1496C73.0982 74.2053 72.8395 72.9692 72.5969 73.1567Z" fill="#E8E2E2"/>
<path d="M54.8309 39.2229C55.1092 39.2032 55.3857 39.1836 55.664 39.1657C56.5952 39.3908 57.1714 40.0803 57.0429 40.8163C56.9038 41.6077 56.1545 42.056 55.127 41.9614C54.9504 41.856 54.6971 41.9256 54.5687 41.7131C54.0674 40.9235 54.0406 40.15 54.6525 39.3997C54.7096 39.3408 54.7702 39.2818 54.8309 39.2229Z" fill="#C84E0B"/>
<path d="M54.5668 41.7145C54.6953 41.9271 54.9504 41.8574 55.1252 41.9628C54.7256 42.438 54.392 42.9364 54.3902 43.5956C54.3902 43.8975 54.2814 44.1743 54.0727 44.4012L54.0049 44.3458C54.1886 43.4687 54.1815 42.5506 54.5668 41.7145Z" fill="#7C8C57"/>
<path d="M56.3831 42.7927C56.3688 42.8998 56.3545 43.0052 56.3385 43.1124C56.235 43.1839 56.1315 43.2553 56.0281 43.3268C55.987 43.041 56.0156 42.8052 56.3831 42.7927Z" fill="#7C8C57"/>
<path d="M55.8351 44.0318L55.7531 44.0461L55.6692 44.0443C55.6442 43.8817 55.6442 43.7335 55.8494 43.6852C55.844 43.7996 55.8387 43.9157 55.8351 44.0318Z" fill="#7C8C57"/>
<path d="M56.0261 43.3278C56.0564 43.4922 56.0332 43.6279 55.8477 43.6833C55.8209 43.5207 55.8298 43.3761 56.0261 43.3278Z" fill="#7C8C57"/>
<path d="M54.5668 41.7147C54.1815 42.5489 54.1886 43.4688 54.0049 44.3459C53.7284 44.4335 53.4537 44.5228 53.1772 44.6103C53.1718 44.5371 53.1682 44.4638 53.1629 44.3906C53.1593 44.1834 53.154 43.9762 53.1504 43.7707C53.657 43.1759 53.6178 42.531 53.327 41.8629C54.2653 40.7857 54.1744 40.1587 52.9203 39.3817C52.5599 39.1584 52.6705 38.8261 52.592 38.5314C52.5956 38.4599 52.5992 38.3885 52.6045 38.317C53.5375 38.2027 54.1512 38.6939 54.6524 39.4013C54.0388 40.1516 54.0655 40.9251 54.5668 41.7147Z" fill="#C4D470"/>
<path d="M51.734 44.1928C50.8367 44.1517 49.9448 44.0784 49.0778 43.8194C49.0617 43.3978 49.0439 42.9762 49.0278 42.5547C49.2722 42.1724 49.3311 41.6597 49.8145 41.4489C50.1 41.8276 50.3033 42.2885 50.8046 42.4528C50.7636 43.1888 51.0454 43.739 51.7287 44.057C51.7304 44.1016 51.7322 44.1481 51.734 44.1928Z" fill="#FDFCFC"/>
<path d="M46.9141 41.3495C47.4938 41.2442 47.8024 41.8622 48.3358 41.8801L48.3501 41.898C48.2502 42.0891 48.3091 42.2016 48.5196 42.2392L48.5053 42.2249C48.3822 42.6018 48.921 43.077 48.5695 43.277C48.2003 43.4878 47.7347 43.1305 47.3493 42.9055C47.2726 42.8608 47.1924 42.8251 47.1139 42.7858C47.0479 42.3088 46.9801 41.8301 46.9141 41.3495Z" fill="#7C8C57"/>
<path d="M47.1135 42.7872C47.192 42.8265 47.2741 42.8622 47.349 42.9069C47.7343 43.1319 48.1999 43.4892 48.5692 43.2784C48.9206 43.0766 48.3819 42.6014 48.505 42.2263C48.7262 42.262 48.728 42.6478 49.0277 42.5549C49.0437 42.9765 49.0615 43.3981 49.0776 43.8197C47.7254 43.8947 47.3115 43.6768 47.1135 42.7872Z" fill="#E8E2E2"/>
<path d="M51.7341 44.1926C51.7323 44.1461 51.7305 44.1015 51.7288 44.055C52.2211 44.0497 52.7153 44.0622 53.1487 43.7692C53.1523 43.9764 53.1577 44.1837 53.1612 44.3891C52.6867 44.3212 52.173 44.5338 51.7341 44.1926Z" fill="#E8E2E2"/>
<path d="M67.5554 56.028C67.4466 55.9994 67.3377 55.9691 67.2307 55.9405C67.2949 55.8547 67.3609 55.7708 67.4252 55.6868C68.2154 55.5404 69.0057 55.3939 69.796 55.2456C70.0225 55.2921 70.06 55.4082 69.9226 55.5886C69.1324 55.7351 68.3439 55.8815 67.5554 56.028Z" fill="#B08B74"/>
<path d="M74.3987 56.1827C74.2149 56.5971 73.7796 56.8901 73.8599 57.3581C73.4425 57.5528 73.2248 56.4167 72.7717 57.2849C72.1723 56.8347 71.5391 56.6239 70.8184 56.9937C71.1216 56.3078 71.2626 55.5896 71.2215 54.8376C71.3785 54.8733 71.5373 54.909 71.6943 54.9448C71.9476 56.2827 72.7468 56.7222 74.0008 56.2149C74.1311 56.1631 74.2542 56.0434 74.3987 56.1827Z" fill="#FDFCFC"/>
<path d="M67.5554 56.029C68.3439 55.8825 69.1324 55.736 69.9209 55.5895C69.8067 56.0343 69.8228 56.7382 69.5534 56.8739C68.8041 57.2526 67.9354 57.3955 66.9917 57.3241C67.9247 57.1472 67.8694 56.6381 67.5554 56.029Z" fill="#C4D470"/>
<path d="M52.5903 38.5297C52.6688 38.8227 52.5582 39.1567 52.9186 39.38C54.1726 40.1589 54.2636 40.7859 53.3253 41.8613C53.2432 41.7684 53.1612 41.6755 53.0791 41.5826C53.4519 40.8805 53.2646 40.2553 52.7705 39.7123C52.1104 38.987 51.2149 39.0192 50.1517 39.7641L50.1535 39.7659C50.0251 39.3282 50.3479 39.1907 50.6405 39.0442C51.256 38.7423 51.8803 38.469 52.5903 38.5297Z" fill="#FDFCFC"/>
<path d="M49.0278 42.5556C48.7264 42.6467 48.7246 42.2626 48.5052 42.2269L48.5194 42.2412C48.5569 42.0804 48.5622 41.9357 48.35 41.9L48.3357 41.8821C48.3428 41.1069 48.3785 40.3459 49.3436 40.1208C49.5024 40.4941 49.4114 40.9657 49.7878 41.2533C49.7967 41.3194 49.8056 41.3855 49.8128 41.4498C49.3329 41.6606 49.2722 42.1751 49.0278 42.5556Z" fill="#7C8C57"/>
<path d="M49.7894 41.2522C49.413 40.9646 49.504 40.493 49.3452 40.1197C49.5272 39.7964 49.8108 39.7142 50.1551 39.7696L50.1533 39.7678C49.9375 40.2376 49.7502 40.7163 49.7894 41.2522Z" fill="#FDFCFC"/>
<path d="M52.3121 74.3477C52.2104 74.2726 52.1105 74.1976 52.0106 74.1208C51.8215 73.8796 51.6199 73.6438 51.6752 73.3044C51.85 73.4474 52.0124 73.6278 52.2764 73.5134L52.2675 73.5045C52.2924 74.0476 52.5904 74.2101 53.006 73.9082C53.5537 73.5099 54.0639 73.0365 54.3386 72.3916C54.5223 71.9611 54.533 71.502 54.1227 71.1769C53.757 70.8857 53.345 70.8875 52.9989 71.2216C52.7902 71.4234 52.6635 71.4627 52.4262 71.2412C52.0177 70.8571 51.5682 70.8875 51.1668 71.2769C50.7494 71.6824 50.8421 72.1308 51.1151 72.5685C51.256 72.7935 51.4273 72.9972 51.586 73.2116C51.058 73.3027 50.8546 72.8239 50.5103 72.5935C50.3997 72.3845 50.2731 72.1808 50.1803 71.9629C49.8735 71.2519 49.9591 70.5963 50.6245 70.1551C51.2792 69.721 51.9196 69.8282 52.4566 70.4213C52.5351 70.507 52.6118 70.5963 52.6903 70.6856C53.452 69.8693 54.1334 69.6906 54.7703 70.1319C55.425 70.5838 55.5053 71.4538 54.9701 72.3684C54.8506 72.572 54.7079 72.7632 54.5758 72.9597C54.1281 73.4027 53.6803 73.8439 53.2308 74.2851C52.9364 74.4906 52.635 74.5745 52.3121 74.3477Z" fill="#C4D470"/>
<path d="M52.2764 73.5135C52.0123 73.6279 51.8518 73.4474 51.6752 73.3045C51.6484 73.2688 51.6181 73.2384 51.5842 73.2117C51.4272 72.9991 51.256 72.7936 51.115 72.5686C50.8421 72.1327 50.7476 71.6825 51.1668 71.277C51.5682 70.8876 52.0195 70.859 52.4262 71.2413C52.6617 71.4628 52.7901 71.4235 52.9988 71.2217C53.3449 70.8876 53.757 70.8858 54.1227 71.177C54.533 71.5021 54.5223 71.9612 54.3386 72.3917C54.0638 73.0348 53.5554 73.5082 53.006 73.9083C52.5903 74.2102 52.2924 74.0477 52.2674 73.5046C53.0524 73.7708 53.4163 73.2259 53.5269 72.6597C53.6946 71.7951 52.9917 72.2024 52.5921 72.1363C52.2799 72.0845 51.9927 71.9934 51.8215 72.3363C51.6591 72.6579 51.8821 72.8972 52.0516 73.1402C52.1337 73.2599 52.2014 73.3885 52.2764 73.5135Z" fill="#FDFCFC"/>
<path d="M72.7681 58.0763L72.7645 58.0656C72.7449 58.4783 72.447 58.6372 72.1973 58.3997C71.9297 58.1478 71.5283 57.8709 71.5907 57.4172C71.6211 57.1974 71.8654 57.2814 72.0296 57.3475C72.3721 57.4922 72.5433 57.812 72.7681 58.0763Z" fill="#E8E2E2"/>
<path d="M74.2683 54.771C74.32 55.0354 74.1755 55.1283 73.9775 55.0961C73.4762 55.0157 73.3746 54.5298 73.1409 54.1904C73.0588 54.0725 73.1908 53.8903 73.3728 53.9314C73.8384 54.0332 74.1416 54.3262 74.2683 54.771Z" fill="#E8E2E2"/>
<path d="M73.9883 57.764C73.9794 57.7908 73.9723 57.8158 73.9633 57.8426C73.9437 57.8051 73.9205 57.7712 73.9063 57.7319C73.9027 57.7229 73.9384 57.7033 73.9544 57.6872C73.9669 57.7122 73.9776 57.739 73.9883 57.764Z" fill="#FDFCFC"/>
<path d="M53.0791 41.5854C53.1612 41.6783 53.2433 41.7712 53.3253 41.864C53.6161 42.5321 53.6554 43.177 53.1487 43.7719C52.7152 44.0648 52.2193 44.0523 51.7287 44.0577C51.0455 43.7397 50.7636 43.1895 50.8047 42.4535C51.3488 41.3424 51.7894 41.1745 53.0791 41.5854Z" fill="#C84E0B"/>
<path d="M53.0789 41.5853C51.7892 41.1745 51.3468 41.3424 50.8045 42.4535C50.3032 42.2891 50.0998 41.8283 49.8144 41.4496C49.8055 41.3835 49.7983 41.3174 49.7894 41.2513C49.7502 40.7172 49.9375 40.2384 50.1533 39.7668C51.2165 39.0219 52.1121 38.9897 52.7721 39.715C53.2662 40.2581 53.4536 40.8833 53.0789 41.5853ZM51.7089 39.815C51.6358 39.7829 51.493 39.9276 51.5412 40.0562C51.6857 40.4313 51.9212 40.7725 52.294 40.9512C52.4546 41.028 52.674 40.9315 52.6401 40.6939C52.5741 40.2366 52.253 39.9937 51.7089 39.815Z" fill="#E3B832"/>
<path d="M48.3499 41.9001C48.5621 41.9358 48.5568 42.0805 48.5193 42.2413C48.3088 42.2038 48.25 42.0912 48.3499 41.9001Z" fill="#DDC298"/>
<path d="M52.2764 73.5132C52.2015 73.3881 52.1337 73.2595 52.0516 73.1398C51.8822 72.8951 51.6592 72.6575 51.8215 72.336C51.9946 71.993 52.28 72.0859 52.5922 72.1359C52.9918 72.202 53.6946 71.7947 53.5269 72.6593C53.4163 73.2273 53.0524 73.7722 52.2675 73.5042C52.2657 73.5042 52.2764 73.5132 52.2764 73.5132Z" fill="#C4D470"/>
<path d="M51.7091 39.8144C52.2531 39.9912 52.5742 40.2342 52.6403 40.6933C52.6741 40.9291 52.4547 41.0273 52.2942 40.9505C51.9213 40.7719 51.6859 40.4307 51.5414 40.0555C51.4932 39.9269 51.6377 39.784 51.7091 39.8144Z" fill="#FDFCFC"/>
</svg>
