<?xml version="1.0" encoding="utf-8"?>
<svg xmlns="http://www.w3.org/2000/svg" xmlns:xlink="http://www.w3.org/1999/xlink" xml:space="preserve" width="792" height="792" viewBox="0 0 792 792"><rect width="792" height="792" fill="#ffffff" x="0" y="0"/><g fill="#000000">
<g transform="translate(264,48) scale(4.12)"><path d="M5.4,2.8C4.5,1.1,2.6-0.1,1.2,0c-1.3,0.1-1.6,1.6-0.7,3.2c1,1.7,2.8,2.9,4.2,2.8C6.1,5.9,6.4,4.4,5.4,2.8z"/></g>
<g transform="translate(312,48) scale(4.12)"><path d="M5.4,2.8C4.5,1.1,2.6-0.1,1.2,0c-1.3,0.1-1.6,1.6-0.7,3.2c1,1.7,2.8,2.9,4.2,2.8C6.1,5.9,6.4,4.4,5.4,2.8z"/></g>
<g transform="translate(408,48) scale(4.12)"><path d="M0,5.2L0,5.2C0,3.8,4.6,0,6,0l0,0v6H0.8C0.4,6,0,5.6,0,5.2z"/></g>
<g transform="translate(432,48) scale(4.12)"><path d="M6,0.8L6,0.8C6,2.2,1.4,6,0,6l0,0V0h5.2C5.6,0,6,0.4,6,0.8z"/></g>
<g transform="translate(504,48) scale(4.12)"><path d="M0,5.2L0,5.2C0,3.8,4.6,0,6,0l0,0v6H0.8C0.4,6,0,5.6,0,5.2z"/></g>
<g transform="translate(528,48) scale(4.12)"><path d="M0,6V0h4c1.1,0,2,0.9,2,2v4H0z"/></g>
<g transform="translate(288,72) scale(4.12)"><path d="M0.8,0L0.8,0C2.2,0,6,4.6,6,6l0,0H0V0.8C0,0.4,0.4,0,0.8,0z"/></g>
<g transform="translate(336,72) scale(4.12)"><path d="M5.4,2.8C4.5,1.1,2.6-0.1,1.2,0c-1.3,0.1-1.6,1.6-0.7,3.2c1,1.7,2.8,2.9,4.2,2.8C6.1,5.9,6.4,4.4,5.4,2.8z"/></g>
<g transform="translate(456,72) scale(4.12)"><path d="M5.4,2.8C4.5,1.1,2.6-0.1,1.2,0c-1.3,0.1-1.6,1.6-0.7,3.2c1,1.7,2.8,2.9,4.2,2.8C6.1,5.9,6.4,4.4,5.4,2.8z"/></g>
<g transform="translate(528,72) scale(4.12)"><rect width="6" height="6"/></g>
<g transform="translate(240,96) scale(4.12)"><path d="M0.8,0L0.8,0C2.2,0,6,4.6,6,6l0,0H0V0.8C0,0.4,0.4,0,0.8,0z"/></g>
<g transform="translate(288,96) scale(4.12)"><rect width="6" height="6"/></g>
<g transform="translate(312,96) scale(4.12)"><path d="M0,6V0h4c1.1,0,2,0.9,2,2v4H0z"/></g>
<g transform="translate(384,96) scale(4.12)"><path d="M5.4,2.8C4.5,1.1,2.6-0.1,1.2,0c-1.3,0.1-1.6,1.6-0.7,3.2c1,1.7,2.8,2.9,4.2,2.8C6.1,5.9,6.4,4.4,5.4,2.8z"/></g>
<g transform="translate(432,96) scale(4.12)"><path d="M0.8,0L0.8,0C2.2,0,6,4.6,6,6l0,0H0V0.8C0,0.4,0.4,0,0.8,0z"/></g>
<g transform="translate(504,96) scale(4.12)"><path d="M6,6H0V2c0-1.1,0.9-2,2-2h4V6z"/></g>
<g transform="translate(528,96) scale(4.12)"><path d="M0,0h6v4c0,1.1-0.9,2-2,2H0V0z"/></g>
<g transform="translate(240,120) scale(4.12)"><rect width="6" height="6"/></g>
<g transform="translate(264,120) scale(4.12)"><rect width="6" height="6"/></g>
<g transform="translate(288,120) scale(4.12)"><rect width="6" height="6"/></g>
<g transform="translate(312,120) scale(4.12)"><rect width="6" height="6"/></g>
<g transform="translate(336,120) scale(4.12)"><path d="M0,6V0h4c1.1,0,2,0.9,2,2v4H0z"/></g>
<g transform="translate(432,120) scale(4.12)"><path d="M6,0v6H2C0.9,6,0,5.1,0,4V0H6z"/></g>
<g transform="translate(456,120) scale(4.12)"><path d="M0,6V0h4c1.1,0,2,0.9,2,2v4H0z"/></g>
<g transform="translate(504,120) scale(4.12)"><rect width="6" height="6"/></g>
<g transform="translate(240,144) scale(4.12)"><rect width="6" height="6"/></g>
<g transform="translate(288,144) scale(4.12)"><rect width="6" height="6"/></g>
<g transform="translate(312,144) scale(4.12)"><rect width="6" height="6"/></g>
<g transform="translate(336,144) scale(4.12)"><rect width="6" height="6"/></g>
<g transform="translate(360,144) scale(4.12)"><rect width="6" height="6"/></g>
<g transform="translate(384,144) scale(4.12)"><rect width="6" height="6"/></g>
<g transform="translate(408,144) scale(4.12)"><path d="M0,6V0h4c1.1,0,2,0.9,2,2v4H0z"/></g>
<g transform="translate(456,144) scale(4.12)"><rect width="6" height="6"/></g>
<g transform="translate(480,144) scale(4.12)"><rect width="6" height="6"/></g>
<g transform="translate(504,144) scale(4.12)"><rect width="6" height="6"/></g>
<g transform="translate(528,144) scale(4.12)"><path d="M6,0.8L6,0.8C6,2.2,1.4,6,0,6l0,0V0h5.2C5.6,0,6,0.4,6,0.8z"/></g>
<g transform="translate(240,168) scale(4.12)"><rect width="6" height="6"/></g>
<g transform="translate(264,168) scale(4.12)"><rect width="6" height="6"/></g>
<g transform="translate(288,168) scale(4.12)"><rect width="6" height="6"/></g>
<g transform="translate(336,168) scale(4.12)"><rect width="6" height="6"/></g>
<g transform="translate(360,168) scale(4.12)"><rect width="6" height="6"/></g>
<g transform="translate(384,168) scale(4.12)"><rect width="6" height="6"/></g>
<g transform="translate(408,168) scale(4.12)"><rect width="6" height="6"/></g>
<g transform="translate(432,168) scale(4.12)"><rect width="6" height="6"/></g>
<g transform="translate(456,168) scale(4.12)"><path d="M0,0h6v4c0,1.1-0.9,2-2,2H0V0z"/></g>
<g transform="translate(240,192) scale(4.12)"><rect width="6" height="6"/></g>
<g transform="translate(288,192) scale(4.12)"><path d="M5.2,6L5.2,6C3.8,6,0,1.4,0,0l0,0h6v5.2C6,5.6,5.6,6,5.2,6z"/></g>
<g transform="translate(336,192) scale(4.12)"><path d="M5.2,6L5.2,6C3.8,6,0,1.4,0,0l0,0h6v5.2C6,5.6,5.6,6,5.2,6z"/></g>
<g transform="translate(384,192) scale(4.12)"><path d="M5.2,6L5.2,6C3.8,6,0,1.4,0,0l0,0h6v5.2C6,5.6,5.6,6,5.2,6z"/></g>
<g transform="translate(432,192) scale(4.12)"><path d="M5.2,6L5.2,6C3.8,6,0,1.4,0,0l0,0h6v5.2C6,5.6,5.6,6,5.2,6z"/></g>
<g transform="translate(480,192) scale(4.12)"><path d="M0.8,0L0.8,0C2.2,0,6,4.6,6,6l0,0H0V0.8C0,0.4,0.4,0,0.8,0z"/></g>
<g transform="translate(528,192) scale(4.12)"><path d="M0.8,0L0.8,0C2.2,0,6,4.6,6,6l0,0H0V0.8C0,0.4,0.4,0,0.8,0z"/></g>
<g transform="translate(240,216) scale(4.12)"><path d="M6,0v6H2C0.9,6,0,5.1,0,4V0H6z"/></g>
<g transform="translate(264,216) scale(4.12)"><path d="M0,6V0h4c1.1,0,2,0.9,2,2v4H0z"/></g>
<g transform="translate(312,216) scale(4.12)"><path d="M0.8,0L0.8,0C2.2,0,6,4.6,6,6l0,0H0V0.8C0,0.4,0.4,0,0.8,0z"/></g>
<g transform="translate(360,216) scale(4.12)"><path d="M5.4,2.8C4.5,1.1,2.6-0.1,1.2,0c-1.3,0.1-1.6,1.6-0.7,3.2c1,1.7,2.8,2.9,4.2,2.8C6.1,5.9,6.4,4.4,5.4,2.8z"/></g>
<g transform="translate(408,216) scale(4.12)"><path d="M0.8,0L0.8,0C2.2,0,6,4.6,6,6l0,0H0V0.8C0,0.4,0.4,0,0.8,0z"/></g>
<g transform="translate(480,216) scale(4.12)"><path d="M5.2,6L5.2,6C3.8,6,0,1.4,0,0l0,0h6v5.2C6,5.6,5.6,6,5.2,6z"/></g>
<g transform="translate(528,216) scale(4.12)"><path d="M5.2,6L5.2,6C3.8,6,0,1.4,0,0l0,0h6v5.2C6,5.6,5.6,6,5.2,6z"/></g>
<g transform="translate(48,240) scale(4.12)"><path d="M5.4,2.8C4.5,1.1,2.6-0.1,1.2,0c-1.3,0.1-1.6,1.6-0.7,3.2c1,1.7,2.8,2.9,4.2,2.8C6.1,5.9,6.4,4.4,5.4,2.8z"/></g>
<g transform="translate(96,240) scale(4.12)"><path d="M0,5.2L0,5.2C0,3.8,4.6,0,6,0l0,0v6H0.8C0.4,6,0,5.6,0,5.2z"/></g>
<g transform="translate(120,240) scale(4.12)"><rect width="6" height="6"/></g>
<g transform="translate(144,240) scale(4.12)"><rect width="6" height="6"/></g>
<g transform="translate(168,240) scale(4.12)"><rect width="6" height="6"/></g>
<g transform="translate(192,240) scale(4.12)"><path d="M6,0.8L6,0.8C6,2.2,1.4,6,0,6l0,0V0h5.2C5.6,0,6,0.4,6,0.8z"/></g>
<g transform="translate(264,240) scale(4.12)"><path d="M5.2,6L5.2,6C3.8,6,0,1.4,0,0l0,0h6v5.2C6,5.6,5.6,6,5.2,6z"/></g>
<g transform="translate(312,240) scale(4.12)"><rect width="6" height="6"/></g>
<g transform="translate(384,240) scale(4.12)"><path d="M0,5.2L0,5.2C0,3.8,4.6,0,6,0l0,0v6H0.8C0.4,6,0,5.6,0,5.2z"/></g>
<g transform="translate(408,240) scale(4.12)"><rect width="6" height="6"/></g>
<g transform="translate(456,240) scale(4.12)"><path d="M0.8,0L0.8,0C2.2,0,6,4.6,6,6l0,0H0V0.8C0,0.4,0.4,0,0.8,0z"/></g>
<g transform="translate(576,240) scale(4.12)"><path d="M6,6H0V2c0-1.1,0.9-2,2-2h4V6z"/></g>
<g transform="translate(600,240) scale(4.12)"><rect width="6" height="6"/></g>
<g transform="translate(624,240) scale(4.12)"><rect width="6" height="6"/></g>
<g transform="translate(648,240) scale(4.12)"><rect width="6" height="6"/></g>
<g transform="translate(672,240) scale(4.12)"><path d="M6,0.8L6,0.8C6,2.2,1.4,6,0,6l0,0V0h5.2C5.6,0,6,0.4,6,0.8z"/></g>
<g transform="translate(144,264) scale(4.12)"><path d="M6,0v6H2C0.9,6,0,5.1,0,4V0H6z"/></g>
<g transform="translate(168,264) scale(4.12)"><rect width="6" height="6"/></g>
<g transform="translate(216,264) scale(4.12)"><path d="M5.4,2.8C4.5,1.1,2.6-0.1,1.2,0c-1.3,0.1-1.6,1.6-0.7,3.2c1,1.7,2.8,2.9,4.2,2.8C6.1,5.9,6.4,4.4,5.4,2.8z"/></g>
<g transform="translate(312,264) scale(4.12)"><rect width="6" height="6"/></g>
<g transform="translate(336,264) scale(4.12)"><path d="M6,0.8L6,0.8C6,2.2,1.4,6,0,6l0,0V0h5.2C5.6,0,6,0.4,6,0.8z"/></g>
<g transform="translate(408,264) scale(4.12)"><path d="M6,0v6H2C0.9,6,0,5.1,0,4V0H6z"/></g>
<g transform="translate(432,264) scale(4.12)"><rect width="6" height="6"/></g>
<g transform="translate(456,264) scale(4.12)"><rect width="6" height="6"/></g>
<g transform="translate(480,264) scale(4.12)"><rect width="6" height="6"/></g>
<g transform="translate(504,264) scale(4.12)"><rect width="6" height="6"/></g>
<g transform="translate(528,264) scale(4.12)"><rect width="6" height="6"/></g>
<g transform="translate(552,264) scale(4.12)"><rect width="6" height="6"/></g>
<g transform="translate(576,264) scale(4.12)"><rect width="6" height="6"/></g>
<g transform="translate(600,264) scale(4.12)"><rect width="6" height="6"/></g>
<g transform="translate(624,264) scale(4.12)"><rect width="6" height="6"/></g>
<g transform="translate(720,264) scale(4.12)"><path d="M5.4,2.8C4.5,1.1,2.6-0.1,1.2,0c-1.3,0.1-1.6,1.6-0.7,3.2c1,1.7,2.8,2.9,4.2,2.8C6.1,5.9,6.4,4.4,5.4,2.8z"/></g>
<g transform="translate(72,288) scale(4.12)"><path d="M0.8,0L0.8,0C2.2,0,6,4.6,6,6l0,0H0V0.8C0,0.4,0.4,0,0.8,0z"/></g>
<g transform="translate(168,288) scale(4.12)"><rect width="6" height="6"/></g>
<g transform="translate(192,288) scale(4.12)"><path d="M6,0.8L6,0.8C6,2.2,1.4,6,0,6l0,0V0h5.2C5.6,0,6,0.4,6,0.8z"/></g>
<g transform="translate(240,288) scale(4.12)"><path d="M5.4,2.8C4.5,1.1,2.6-0.1,1.2,0c-1.3,0.1-1.6,1.6-0.7,3.2c1,1.7,2.8,2.9,4.2,2.8C6.1,5.9,6.4,4.4,5.4,2.8z"/></g>
<g transform="translate(288,288) scale(4.12)"><path d="M0,5.2L0,5.2C0,3.8,4.6,0,6,0l0,0v6H0.8C0.4,6,0,5.6,0,5.2z"/></g>
<g transform="translate(312,288) scale(4.12)"><path d="M0,0h6v4c0,1.1-0.9,2-2,2H0V0z"/></g>
<g transform="translate(528,288) scale(4.12)"><rect width="6" height="6"/></g>
<g transform="translate(552,288) scale(4.12)"><rect width="6" height="6"/></g>
<g transform="translate(576,288) scale(4.12)"><path d="M0,0h6v4c0,1.1-0.9,2-2,2H0V0z"/></g>
<g transform="translate(624,288) scale(4.12)"><rect width="6" height="6"/></g>
<g transform="translate(48,312) scale(4.12)"><path d="M0,5.2L0,5.2C0,3.8,4.6,0,6,0l0,0v6H0.8C0.4,6,0,5.6,0,5.2z"/></g>
<g transform="translate(72,312) scale(4.12)"><rect width="6" height="6"/></g>
<g transform="translate(168,312) scale(4.12)"><path d="M5.2,6L5.2,6C3.8,6,0,1.4,0,0l0,0h6v5.2C6,5.6,5.6,6,5.2,6z"/></g>
<g transform="translate(336,312) scale(4.12)"><path d="M0.8,0L0.8,0C2.2,0,6,4.6,6,6l0,0H0V0.8C0,0.4,0.4,0,0.8,0z"/></g>
<g transform="translate(384,312) scale(4.12)"><path d="M5.4,2.8C4.5,1.1,2.6-0.1,1.2,0c-1.3,0.1-1.6,1.6-0.7,3.2c1,1.7,2.8,2.9,4.2,2.8C6.1,5.9,6.4,4.4,5.4,2.8z"/></g>
<g transform="translate(432,312) scale(4.12)"><path d="M5.4,2.8C4.5,1.1,2.6-0.1,1.2,0c-1.3,0.1-1.6,1.6-0.7,3.2c1,1.7,2.8,2.9,4.2,2.8C6.1,5.9,6.4,4.4,5.4,2.8z"/></g>
<g transform="translate(480,312) scale(4.12)"><path d="M0,5.2L0,5.2C0,3.8,4.6,0,6,0l0,0v6H0.8C0.4,6,0,5.6,0,5.2z"/></g>
<g transform="translate(504,312) scale(4.12)"><rect width="6" height="6"/></g>
<g transform="translate(528,312) scale(4.12)"><path d="M0,0h6v4c0,1.1-0.9,2-2,2H0V0z"/></g>
<g transform="translate(600,312) scale(4.12)"><path d="M0,5.2L0,5.2C0,3.8,4.6,0,6,0l0,0v6H0.8C0.4,6,0,5.6,0,5.2z"/></g>
<g transform="translate(624,312) scale(4.12)"><rect width="6" height="6"/></g>
<g transform="translate(648,312) scale(4.12)"><path d="M0,6V0h4c1.1,0,2,0.9,2,2v4H0z"/></g>
<g transform="translate(696,312) scale(4.12)"><path d="M5.4,2.8C4.5,1.1,2.6-0.1,1.2,0c-1.3,0.1-1.6,1.6-0.7,3.2c1,1.7,2.8,2.9,4.2,2.8C6.1,5.9,6.4,4.4,5.4,2.8z"/></g>
<g transform="translate(72,336) scale(4.12)"><rect width="6" height="6"/></g>
<g transform="translate(96,336) scale(4.12)"><path d="M6,0.8L6,0.8C6,2.2,1.4,6,0,6l0,0V0h5.2C5.6,0,6,0.4,6,0.8z"/></g>
<g transform="translate(144,336) scale(4.12)"><path d="M5.4,2.8C4.5,1.1,2.6-0.1,1.2,0c-1.3,0.1-1.6,1.6-0.7,3.2c1,1.7,2.8,2.9,4.2,2.8C6.1,5.9,6.4,4.4,5.4,2.8z"/></g>
<g transform="translate(192,336) scale(4.12)"><path d="M5.4,2.8C4.5,1.1,2.6-0.1,1.2,0c-1.3,0.1-1.6,1.6-0.7,3.2c1,1.7,2.8,2.9,4.2,2.8C6.1,5.9,6.4,4.4,5.4,2.8z"/></g>
<g transform="translate(336,336) scale(4.12)"><path d="M5.2,6L5.2,6C3.8,6,0,1.4,0,0l0,0h6v5.2C6,5.6,5.6,6,5.2,6z"/></g>
<g transform="translate(456,336) scale(4.12)"><path d="M0.8,0L0.8,0C2.2,0,6,4.6,6,6l0,0H0V0.8C0,0.4,0.4,0,0.8,0z"/></g>
<g transform="translate(504,336) scale(4.12)"><rect width="6" height="6"/></g>
<g transform="translate(648,336) scale(4.12)"><path d="M6,0v6H2C0.9,6,0,5.1,0,4V0H6z"/></g>
<g transform="translate(672,336) scale(4.12)"><path d="M6,0.8L6,0.8C6,2.2,1.4,6,0,6l0,0V0h5.2C5.6,0,6,0.4,6,0.8z"/></g>
<g transform="translate(48,360) scale(4.12)"><path d="M6,6H0V2c0-1.1,0.9-2,2-2h4V6z"/></g>
<g transform="translate(72,360) scale(4.12)"><path d="M0,0h6v4c0,1.1-0.9,2-2,2H0V0z"/></g>
<g transform="translate(120,360) scale(4.12)"><path d="M5.4,2.8C4.5,1.1,2.6-0.1,1.2,0c-1.3,0.1-1.6,1.6-0.7,3.2c1,1.7,2.8,2.9,4.2,2.8C6.1,5.9,6.4,4.4,5.4,2.8z"/></g>
<g transform="translate(216,360) scale(4.12)"><path d="M0.8,0L0.8,0C2.2,0,6,4.6,6,6l0,0H0V0.8C0,0.4,0.4,0,0.8,0z"/></g>
<g transform="translate(264,360) scale(4.12)"><path d="M0.8,0L0.8,0C2.2,0,6,4.6,6,6l0,0H0V0.8C0,0.4,0.4,0,0.8,0z"/></g>
<g transform="translate(312,360) scale(4.12)"><path d="M0.8,0L0.8,0C2.2,0,6,4.6,6,6l0,0H0V0.8C0,0.4,0.4,0,0.8,0z"/></g>
<g transform="translate(360,360) scale(4.12)"><path d="M6,6H0V2c0-1.1,0.9-2,2-2h4V6z"/></g>
<g transform="translate(384,360) scale(4.12)"><rect width="6" height="6"/></g>
<g transform="translate(408,360) scale(4.12)"><path d="M0,6V0h4c1.1,0,2,0.9,2,2v4H0z"/></g>
<g transform="translate(456,360) scale(4.12)"><rect width="6" height="6"/></g>
<g transform="translate(480,360) scale(4.12)"><rect width="6" height="6"/></g>
<g transform="translate(504,360) scale(4.12)"><path d="M0,0h6v4c0,1.1-0.9,2-2,2H0V0z"/></g>
<g transform="translate(552,360) scale(4.12)"><path d="M6,6H0V2c0-1.1,0.9-2,2-2h4V6z"/></g>
<g transform="translate(576,360) scale(4.12)"><rect width="6" height="6"/></g>
<g transform="translate(600,360) scale(4.12)"><rect width="6" height="6"/></g>
<g transform="translate(624,360) scale(4.12)"><path d="M6,0.8L6,0.8C6,2.2,1.4,6,0,6l0,0V0h5.2C5.6,0,6,0.4,6,0.8z"/></g>
<g transform="translate(720,360) scale(4.12)"><path d="M5.4,2.8C4.5,1.1,2.6-0.1,1.2,0c-1.3,0.1-1.6,1.6-0.7,3.2c1,1.7,2.8,2.9,4.2,2.8C6.1,5.9,6.4,4.4,5.4,2.8z"/></g>
<g transform="translate(48,384) scale(4.12)"><path d="M5.2,6L5.2,6C3.8,6,0,1.4,0,0l0,0h6v5.2C6,5.6,5.6,6,5.2,6z"/></g>
<g transform="translate(144,384) scale(4.12)"><path d="M0,5.2L0,5.2C0,3.8,4.6,0,6,0l0,0v6H0.8C0.4,6,0,5.6,0,5.2z"/></g>
<g transform="translate(168,384) scale(4.12)"><rect width="6" height="6"/></g>
<g transform="translate(192,384) scale(4.12)"><rect width="6" height="6"/></g>
<g transform="translate(216,384) scale(4.12)"><rect width="6" height="6"/></g>
<g transform="translate(240,384) scale(4.12)"><rect width="6" height="6"/></g>
<g transform="translate(264,384) scale(4.12)"><rect width="6" height="6"/></g>
<g transform="translate(312,384) scale(4.12)"><rect width="6" height="6"/></g>
<g transform="translate(336,384) scale(4.12)"><rect width="6" height="6"/></g>
<g transform="translate(360,384) scale(4.12)"><rect width="6" height="6"/></g>
<g transform="translate(384,384) scale(4.12)"><rect width="6" height="6"/></g>
<g transform="translate(408,384) scale(4.12)"><rect width="6" height="6"/></g>
<g transform="translate(432,384) scale(4.12)"><rect width="6" height="6"/></g>
<g transform="translate(456,384) scale(4.12)"><path d="M0,0h6v4c0,1.1-0.9,2-2,2H0V0z"/></g>
<g transform="translate(528,384) scale(4.12)"><path d="M6,6H0V2c0-1.1,0.9-2,2-2h4V6z"/></g>
<g transform="translate(552,384) scale(4.12)"><rect width="6" height="6"/></g>
<g transform="translate(600,384) scale(4.12)"><rect width="6" height="6"/></g>
<g transform="translate(648,384) scale(4.12)"><path d="M0,5.2L0,5.2C0,3.8,4.6,0,6,0l0,0v6H0.8C0.4,6,0,5.6,0,5.2z"/></g>
<g transform="translate(672,384) scale(4.12)"><path d="M6,0.8L6,0.8C6,2.2,1.4,6,0,6l0,0V0h5.2C5.6,0,6,0.4,6,0.8z"/></g>
<g transform="translate(168,408) scale(4.12)"><rect width="6" height="6"/></g>
<g transform="translate(216,408) scale(4.12)"><path d="M6,0v6H2C0.9,6,0,5.1,0,4V0H6z"/></g>
<g transform="translate(240,408) scale(4.12)"><rect width="6" height="6"/></g>
<g transform="translate(264,408) scale(4.12)"><rect width="6" height="6"/></g>
<g transform="translate(312,408) scale(4.12)"><path d="M6,0v6H2C0.9,6,0,5.1,0,4V0H6z"/></g>
<g transform="translate(336,408) scale(4.12)"><rect width="6" height="6"/></g>
<g transform="translate(360,408) scale(4.12)"><path d="M0,0h6v4c0,1.1-0.9,2-2,2H0V0z"/></g>
<g transform="translate(528,408) scale(4.12)"><path d="M6,0v6H2C0.9,6,0,5.1,0,4V0H6z"/></g>
<g transform="translate(552,408) scale(4.12)"><rect width="6" height="6"/></g>
<g transform="translate(576,408) scale(4.12)"><rect width="6" height="6"/></g>
<g transform="translate(600,408) scale(4.12)"><path d="M0,0h6v4c0,1.1-0.9,2-2,2H0V0z"/></g>
<g transform="translate(696,408) scale(4.12)"><path d="M5.4,2.8C4.5,1.1,2.6-0.1,1.2,0c-1.3,0.1-1.6,1.6-0.7,3.2c1,1.7,2.8,2.9,4.2,2.8C6.1,5.9,6.4,4.4,5.4,2.8z"/></g>
<g transform="translate(48,432) scale(4.12)"><path d="M6,6H0V2c0-1.1,0.9-2,2-2h4V6z"/></g>
<g transform="translate(72,432) scale(4.12)"><path d="M6,0.8L6,0.8C6,2.2,1.4,6,0,6l0,0V0h5.2C5.6,0,6,0.4,6,0.8z"/></g>
<g transform="translate(168,432) scale(4.12)"><rect width="6" height="6"/></g>
<g transform="translate(192,432) scale(4.12)"><path d="M6,0.8L6,0.8C6,2.2,1.4,6,0,6l0,0V0h5.2C5.6,0,6,0.4,6,0.8z"/></g>
<g transform="translate(240,432) scale(4.12)"><path d="M6,0v6H2C0.9,6,0,5.1,0,4V0H6z"/></g>
<g transform="translate(264,432) scale(4.12)"><rect width="6" height="6"/></g>
<g transform="translate(288,432) scale(4.12)"><path d="M6,0.8L6,0.8C6,2.2,1.4,6,0,6l0,0V0h5.2C5.6,0,6,0.4,6,0.8z"/></g>
<g transform="translate(336,432) scale(4.12)"><rect width="6" height="6"/></g>
<g transform="translate(384,432) scale(4.12)"><path d="M0,5.2L0,5.2C0,3.8,4.6,0,6,0l0,0v6H0.8C0.4,6,0,5.6,0,5.2z"/></g>
<g transform="translate(408,432) scale(4.12)"><rect width="6" height="6"/></g>
<g transform="translate(432,432) scale(4.12)"><rect width="6" height="6"/></g>
<g transform="translate(456,432) scale(4.12)"><path d="M6,0.8L6,0.8C6,2.2,1.4,6,0,6l0,0V0h5.2C5.6,0,6,0.4,6,0.8z"/></g>
<g transform="translate(504,432) scale(4.12)"><path d="M0.8,0L0.8,0C2.2,0,6,4.6,6,6l0,0H0V0.8C0,0.4,0.4,0,0.8,0z"/></g>
<g transform="translate(648,432) scale(4.12)"><path d="M0,5.2L0,5.2C0,3.8,4.6,0,6,0l0,0v6H0.8C0.4,6,0,5.6,0,5.2z"/></g>
<g transform="translate(672,432) scale(4.12)"><path d="M0,6V0h4c1.1,0,2,0.9,2,2v4H0z"/></g>
<g transform="translate(48,456) scale(4.12)"><rect width="6" height="6"/></g>
<g transform="translate(96,456) scale(4.12)"><path d="M6,6H0V2c0-1.1,0.9-2,2-2h4V6z"/></g>
<g transform="translate(120,456) scale(4.12)"><rect width="6" height="6"/></g>
<g transform="translate(144,456) scale(4.12)"><rect width="6" height="6"/></g>
<g transform="translate(168,456) scale(4.12)"><path d="M0,0h6v4c0,1.1-0.9,2-2,2H0V0z"/></g>
<g transform="translate(216,456) scale(4.12)"><path d="M5.4,2.8C4.5,1.1,2.6-0.1,1.2,0c-1.3,0.1-1.6,1.6-0.7,3.2c1,1.7,2.8,2.9,4.2,2.8C6.1,5.9,6.4,4.4,5.4,2.8z"/></g>
<g transform="translate(264,456) scale(4.12)"><path d="M5.2,6L5.2,6C3.8,6,0,1.4,0,0l0,0h6v5.2C6,5.6,5.6,6,5.2,6z"/></g>
<g transform="translate(336,456) scale(4.12)"><path d="M5.2,6L5.2,6C3.8,6,0,1.4,0,0l0,0h6v5.2C6,5.6,5.6,6,5.2,6z"/></g>
<g transform="translate(432,456) scale(4.12)"><path d="M5.2,6L5.2,6C3.8,6,0,1.4,0,0l0,0h6v5.2C6,5.6,5.6,6,5.2,6z"/></g>
<g transform="translate(480,456) scale(4.12)"><path d="M6,6H0V2c0-1.1,0.9-2,2-2h4V6z"/></g>
<g transform="translate(504,456) scale(4.12)"><rect width="6" height="6"/></g>
<g transform="translate(528,456) scale(4.12)"><rect width="6" height="6"/></g>
<g transform="translate(552,456) scale(4.12)"><rect width="6" height="6"/></g>
<g transform="translate(576,456) scale(4.12)"><rect width="6" height="6"/></g>
<g transform="translate(600,456) scale(4.12)"><rect width="6" height="6"/></g>
<g transform="translate(624,456) scale(4.12)"><path d="M6,0.8L6,0.8C6,2.2,1.4,6,0,6l0,0V0h5.2C5.6,0,6,0.4,6,0.8z"/></g>
<g transform="translate(672,456) scale(4.12)"><rect width="6" height="6"/></g>
<g transform="translate(720,456) scale(4.12)"><path d="M5.4,2.8C4.5,1.1,2.6-0.1,1.2,0c-1.3,0.1-1.6,1.6-0.7,3.2c1,1.7,2.8,2.9,4.2,2.8C6.1,5.9,6.4,4.4,5.4,2.8z"/></g>
<g transform="translate(48,480) scale(4.12)"><rect width="6" height="6"/></g>
<g transform="translate(96,480) scale(4.12)"><rect width="6" height="6"/></g>
<g transform="translate(120,480) scale(4.12)"><rect width="6" height="6"/></g>
<g transform="translate(144,480) scale(4.12)"><rect width="6" height="6"/></g>
<g transform="translate(192,480) scale(4.12)"><path d="M5.4,2.8C4.5,1.1,2.6-0.1,1.2,0c-1.3,0.1-1.6,1.6-0.7,3.2c1,1.7,2.8,2.9,4.2,2.8C6.1,5.9,6.4,4.4,5.4,2.8z"/></g>
<g transform="translate(408,480) scale(4.12)"><path d="M0.8,0L0.8,0C2.2,0,6,4.6,6,6l0,0H0V0.8C0,0.4,0.4,0,0.8,0z"/></g>
<g transform="translate(480,480) scale(4.12)"><path d="M5.2,6L5.2,6C3.8,6,0,1.4,0,0l0,0h6v5.2C6,5.6,5.6,6,5.2,6z"/></g>
<g transform="translate(528,480) scale(4.12)"><rect width="6" height="6"/></g>
<g transform="translate(600,480) scale(4.12)"><rect width="6" height="6"/></g>
<g transform="translate(672,480) scale(4.12)"><path d="M5.2,6L5.2,6C3.8,6,0,1.4,0,0l0,0h6v5.2C6,5.6,5.6,6,5.2,6z"/></g>
<g transform="translate(48,504) scale(4.12)"><rect width="6" height="6"/></g>
<g transform="translate(96,504) scale(4.12)"><rect width="6" height="6"/></g>
<g transform="translate(120,504) scale(4.12)"><rect width="6" height="6"/></g>
<g transform="translate(144,504) scale(4.12)"><rect width="6" height="6"/></g>
<g transform="translate(240,504) scale(4.12)"><path d="M5.4,2.8C4.5,1.1,2.6-0.1,1.2,0c-1.3,0.1-1.6,1.6-0.7,3.2c1,1.7,2.8,2.9,4.2,2.8C6.1,5.9,6.4,4.4,5.4,2.8z"/></g>
<g transform="translate(312,504) scale(4.12)"><path d="M0.8,0L0.8,0C2.2,0,6,4.6,6,6l0,0H0V0.8C0,0.4,0.4,0,0.8,0z"/></g>
<g transform="translate(384,504) scale(4.12)"><path d="M0,5.2L0,5.2C0,3.8,4.6,0,6,0l0,0v6H0.8C0.4,6,0,5.6,0,5.2z"/></g>
<g transform="translate(408,504) scale(4.12)"><rect width="6" height="6"/></g>
<g transform="translate(504,504) scale(4.12)"><path d="M6,6H0V2c0-1.1,0.9-2,2-2h4V6z"/></g>
<g transform="translate(528,504) scale(4.12)"><rect width="6" height="6"/></g>
<g transform="translate(552,504) scale(4.12)"><path d="M0,6V0h4c1.1,0,2,0.9,2,2v4H0z"/></g>
<g transform="translate(600,504) scale(4.12)"><rect width="6" height="6"/></g>
<g transform="translate(696,504) scale(4.12)"><path d="M0.8,0L0.8,0C2.2,0,6,4.6,6,6l0,0H0V0.8C0,0.4,0.4,0,0.8,0z"/></g>
<g transform="translate(48,528) scale(4.12)"><path d="M5.2,6L5.2,6C3.8,6,0,1.4,0,0l0,0h6v5.2C6,5.6,5.6,6,5.2,6z"/></g>
<g transform="translate(96,528) scale(4.12)"><path d="M5.2,6L5.2,6C3.8,6,0,1.4,0,0l0,0h6v5.2C6,5.6,5.6,6,5.2,6z"/></g>
<g transform="translate(144,528) scale(4.12)"><path d="M5.2,6L5.2,6C3.8,6,0,1.4,0,0l0,0h6v5.2C6,5.6,5.6,6,5.2,6z"/></g>
<g transform="translate(192,528) scale(4.12)"><path d="M5.4,2.8C4.5,1.1,2.6-0.1,1.2,0c-1.3,0.1-1.6,1.6-0.7,3.2c1,1.7,2.8,2.9,4.2,2.8C6.1,5.9,6.4,4.4,5.4,2.8z"/></g>
<g transform="translate(288,528) scale(4.12)"><path d="M6,6H0V2c0-1.1,0.9-2,2-2h4V6z"/></g>
<g transform="translate(312,528) scale(4.12)"><rect width="6" height="6"/></g>
<g transform="translate(336,528) scale(4.12)"><path d="M6,0.8L6,0.8C6,2.2,1.4,6,0,6l0,0V0h5.2C5.6,0,6,0.4,6,0.8z"/></g>
<g transform="translate(408,528) scale(4.12)"><path d="M6,0v6H2C0.9,6,0,5.1,0,4V0H6z"/></g>
<g transform="translate(432,528) scale(4.12)"><rect width="6" height="6"/></g>
<g transform="translate(456,528) scale(4.12)"><path d="M6,0.8L6,0.8C6,2.2,1.4,6,0,6l0,0V0h5.2C5.6,0,6,0.4,6,0.8z"/></g>
<g transform="translate(504,528) scale(4.12)"><path d="M6,0v6H2C0.9,6,0,5.1,0,4V0H6z"/></g>
<g transform="translate(528,528) scale(4.12)"><rect width="6" height="6"/></g>
<g transform="translate(552,528) scale(4.12)"><rect width="6" height="6"/></g>
<g transform="translate(576,528) scale(4.12)"><rect width="6" height="6"/></g>
<g transform="translate(600,528) scale(4.12)"><rect width="6" height="6"/></g>
<g transform="translate(624,528) scale(4.12)"><path d="M0,6V0h4c1.1,0,2,0.9,2,2v4H0z"/></g>
<g transform="translate(672,528) scale(4.12)"><path d="M6,6H0V2c0-1.1,0.9-2,2-2h4V6z"/></g>
<g transform="translate(696,528) scale(4.12)"><rect width="6" height="6"/></g>
<g transform="translate(720,528) scale(4.12)"><path d="M0,6V0h4c1.1,0,2,0.9,2,2v4H0z"/></g>
<g transform="translate(240,552) scale(4.12)"><path d="M5.4,2.8C4.5,1.1,2.6-0.1,1.2,0c-1.3,0.1-1.6,1.6-0.7,3.2c1,1.7,2.8,2.9,4.2,2.8C6.1,5.9,6.4,4.4,5.4,2.8z"/></g>
<g transform="translate(288,552) scale(4.12)"><rect width="6" height="6"/></g>
<g transform="translate(360,552) scale(4.12)"><path d="M6,6H0V2c0-1.1,0.9-2,2-2h4V6z"/></g>
<g transform="translate(384,552) scale(4.12)"><path d="M0,6V0h4c1.1,0,2,0.9,2,2v4H0z"/></g>
<g transform="translate(432,552) scale(4.12)"><path d="M5.2,6L5.2,6C3.8,6,0,1.4,0,0l0,0h6v5.2C6,5.6,5.6,6,5.2,6z"/></g>
<g transform="translate(480,552) scale(4.12)"><path d="M5.4,2.8C4.5,1.1,2.6-0.1,1.2,0c-1.3,0.1-1.6,1.6-0.7,3.2c1,1.7,2.8,2.9,4.2,2.8C6.1,5.9,6.4,4.4,5.4,2.8z"/></g>
<g transform="translate(528,552) scale(4.12)"><rect width="6" height="6"/></g>
<g transform="translate(624,552) scale(4.12)"><rect width="6" height="6"/></g>
<g transform="translate(648,552) scale(4.12)"><rect width="6" height="6"/></g>
<g transform="translate(672,552) scale(4.12)"><rect width="6" height="6"/></g>
<g transform="translate(696,552) scale(4.12)"><rect width="6" height="6"/></g>
<g transform="translate(720,552) scale(4.12)"><path d="M0,0h6v4c0,1.1-0.9,2-2,2H0V0z"/></g>
<g transform="translate(264,576) scale(4.12)"><path d="M0,5.2L0,5.2C0,3.8,4.6,0,6,0l0,0v6H0.8C0.4,6,0,5.6,0,5.2z"/></g>
<g transform="translate(288,576) scale(4.12)"><rect width="6" height="6"/></g>
<g transform="translate(312,576) scale(4.12)"><path d="M6,0.8L6,0.8C6,2.2,1.4,6,0,6l0,0V0h5.2C5.6,0,6,0.4,6,0.8z"/></g>
<g transform="translate(360,576) scale(4.12)"><rect width="6" height="6"/></g>
<g transform="translate(384,576) scale(4.12)"><rect width="6" height="6"/></g>
<g transform="translate(408,576) scale(4.12)"><path d="M0,6V0h4c1.1,0,2,0.9,2,2v4H0z"/></g>
<g transform="translate(504,576) scale(4.12)"><path d="M6,6H0V2c0-1.1,0.9-2,2-2h4V6z"/></g>
<g transform="translate(528,576) scale(4.12)"><rect width="6" height="6"/></g>
<g transform="translate(576,576) scale(4.12)"><path d="M5.4,2.8C4.5,1.1,2.6-0.1,1.2,0c-1.3,0.1-1.6,1.6-0.7,3.2c1,1.7,2.8,2.9,4.2,2.8C6.1,5.9,6.4,4.4,5.4,2.8z"/></g>
<g transform="translate(624,576) scale(4.12)"><rect width="6" height="6"/></g>
<g transform="translate(648,576) scale(4.12)"><rect width="6" height="6"/></g>
<g transform="translate(672,576) scale(4.12)"><path d="M0,0h6v4c0,1.1-0.9,2-2,2H0V0z"/></g>
<g transform="translate(240,600) scale(4.12)"><path d="M0.8,0L0.8,0C2.2,0,6,4.6,6,6l0,0H0V0.8C0,0.4,0.4,0,0.8,0z"/></g>
<g transform="translate(288,600) scale(4.12)"><path d="M5.2,6L5.2,6C3.8,6,0,1.4,0,0l0,0h6v5.2C6,5.6,5.6,6,5.2,6z"/></g>
<g transform="translate(336,600) scale(4.12)"><path d="M0,5.2L0,5.2C0,3.8,4.6,0,6,0l0,0v6H0.8C0.4,6,0,5.6,0,5.2z"/></g>
<g transform="translate(360,600) scale(4.12)"><path d="M0,0h6v4c0,1.1-0.9,2-2,2H0V0z"/></g>
<g transform="translate(408,600) scale(4.12)"><rect width="6" height="6"/></g>
<g transform="translate(480,600) scale(4.12)"><path d="M6,6H0V2c0-1.1,0.9-2,2-2h4V6z"/></g>
<g transform="translate(504,600) scale(4.12)"><rect width="6" height="6"/></g>
<g transform="translate(528,600) scale(4.12)"><rect width="6" height="6"/></g>
<g transform="translate(624,600) scale(4.12)"><rect width="6" height="6"/></g>
<g transform="translate(240,624) scale(4.12)"><rect width="6" height="6"/></g>
<g transform="translate(312,624) scale(4.12)"><path d="M0.8,0L0.8,0C2.2,0,6,4.6,6,6l0,0H0V0.8C0,0.4,0.4,0,0.8,0z"/></g>
<g transform="translate(384,624) scale(4.12)"><path d="M0,5.2L0,5.2C0,3.8,4.6,0,6,0l0,0v6H0.8C0.4,6,0,5.6,0,5.2z"/></g>
<g transform="translate(408,624) scale(4.12)"><rect width="6" height="6"/></g>
<g transform="translate(432,624) scale(4.12)"><rect width="6" height="6"/></g>
<g transform="translate(456,624) scale(4.12)"><rect width="6" height="6"/></g>
<g transform="translate(480,624) scale(4.12)"><rect width="6" height="6"/></g>
<g transform="translate(528,624) scale(4.12)"><rect width="6" height="6"/></g>
<g transform="translate(552,624) scale(4.12)"><rect width="6" height="6"/></g>
<g transform="translate(576,624) scale(4.12)"><rect width="6" height="6"/></g>
<g transform="translate(600,624) scale(4.12)"><rect width="6" height="6"/></g>
<g transform="translate(624,624) scale(4.12)"><path d="M0,0h6v4c0,1.1-0.9,2-2,2H0V0z"/></g>
<g transform="translate(672,624) scale(4.12)"><path d="M6,6H0V2c0-1.1,0.9-2,2-2h4V6z"/></g>
<g transform="translate(696,624) scale(4.12)"><path d="M0,6V0h4c1.1,0,2,0.9,2,2v4H0z"/></g>
<g transform="translate(240,648) scale(4.12)"><rect width="6" height="6"/></g>
<g transform="translate(264,648) scale(4.12)"><rect width="6" height="6"/></g>
<g transform="translate(288,648) scale(4.12)"><rect width="6" height="6"/></g>
<g transform="translate(312,648) scale(4.12)"><rect width="6" height="6"/></g>
<g transform="translate(336,648) scale(4.12)"><path d="M0,6V0h4c1.1,0,2,0.9,2,2v4H0z"/></g>
<g transform="translate(432,648) scale(4.12)"><rect width="6" height="6"/></g>
<g transform="translate(456,648) scale(4.12)"><rect width="6" height="6"/></g>
<g transform="translate(480,648) scale(4.12)"><rect width="6" height="6"/></g>
<g transform="translate(504,648) scale(4.12)"><rect width="6" height="6"/></g>
<g transform="translate(528,648) scale(4.12)"><rect width="6" height="6"/></g>
<g transform="translate(552,648) scale(4.12)"><rect width="6" height="6"/></g>
<g transform="translate(648,648) scale(4.12)"><path d="M6,6H0V2c0-1.1,0.9-2,2-2h4V6z"/></g>
<g transform="translate(672,648) scale(4.12)"><rect width="6" height="6"/></g>
<g transform="translate(696,648) scale(4.12)"><rect width="6" height="6"/></g>
<g transform="translate(720,648) scale(4.12)"><path d="M6,0.8L6,0.8C6,2.2,1.4,6,0,6l0,0V0h5.2C5.6,0,6,0.4,6,0.8z"/></g>
<g transform="translate(240,672) scale(4.12)"><path d="M6,0v6H2C0.9,6,0,5.1,0,4V0H6z"/></g>
<g transform="translate(264,672) scale(4.12)"><rect width="6" height="6"/></g>
<g transform="translate(288,672) scale(4.12)"><path d="M0,0h6v4c0,1.1-0.9,2-2,2H0V0z"/></g>
<g transform="translate(336,672) scale(4.12)"><path d="M5.2,6L5.2,6C3.8,6,0,1.4,0,0l0,0h6v5.2C6,5.6,5.6,6,5.2,6z"/></g>
<g transform="translate(384,672) scale(4.12)"><path d="M0,5.2L0,5.2C0,3.8,4.6,0,6,0l0,0v6H0.8C0.4,6,0,5.6,0,5.2z"/></g>
<g transform="translate(408,672) scale(4.12)"><rect width="6" height="6"/></g>
<g transform="translate(432,672) scale(4.12)"><path d="M0,0h6v4c0,1.1-0.9,2-2,2H0V0z"/></g>
<g transform="translate(552,672) scale(4.12)"><path d="M6,0v6H2C0.9,6,0,5.1,0,4V0H6z"/></g>
<g transform="translate(576,672) scale(4.12)"><rect width="6" height="6"/></g>
<g transform="translate(600,672) scale(4.12)"><rect width="6" height="6"/></g>
<g transform="translate(624,672) scale(4.12)"><rect width="6" height="6"/></g>
<g transform="translate(648,672) scale(4.12)"><rect width="6" height="6"/></g>
<g transform="translate(672,672) scale(4.12)"><rect width="6" height="6"/></g>
<g transform="translate(696,672) scale(4.12)"><rect width="6" height="6"/></g>
<g transform="translate(360,696) scale(4.12)"><path d="M0.8,0L0.8,0C2.2,0,6,4.6,6,6l0,0H0V0.8C0,0.4,0.4,0,0.8,0z"/></g>
<g transform="translate(408,696) scale(4.12)"><rect width="6" height="6"/></g>
<g transform="translate(528,696) scale(4.12)"><path d="M5.4,2.8C4.5,1.1,2.6-0.1,1.2,0c-1.3,0.1-1.6,1.6-0.7,3.2c1,1.7,2.8,2.9,4.2,2.8C6.1,5.9,6.4,4.4,5.4,2.8z"/></g>
<g transform="translate(576,696) scale(4.12)"><rect width="6" height="6"/></g>
<g transform="translate(648,696) scale(4.12)"><path d="M5.2,6L5.2,6C3.8,6,0,1.4,0,0l0,0h6v5.2C6,5.6,5.6,6,5.2,6z"/></g>
<g transform="translate(696,696) scale(4.12)"><path d="M5.2,6L5.2,6C3.8,6,0,1.4,0,0l0,0h6v5.2C6,5.6,5.6,6,5.2,6z"/></g>
<g transform="translate(240,720) scale(4.12)"><path d="M0,5.2L0,5.2C0,3.8,4.6,0,6,0l0,0v6H0.8C0.4,6,0,5.6,0,5.2z"/></g>
<g transform="translate(264,720) scale(4.12)"><path d="M6,0.8L6,0.8C6,2.2,1.4,6,0,6l0,0V0h5.2C5.6,0,6,0.4,6,0.8z"/></g>
<g transform="translate(312,720) scale(4.12)"><path d="M5.4,2.8C4.5,1.1,2.6-0.1,1.2,0c-1.3,0.1-1.6,1.6-0.7,3.2c1,1.7,2.8,2.9,4.2,2.8C6.1,5.9,6.4,4.4,5.4,2.8z"/></g>
<g transform="translate(360,720) scale(4.12)"><path d="M5.2,6L5.2,6C3.8,6,0,1.4,0,0l0,0h6v5.2C6,5.6,5.6,6,5.2,6z"/></g>
<g transform="translate(408,720) scale(4.12)"><path d="M5.2,6L5.2,6C3.8,6,0,1.4,0,0l0,0h6v5.2C6,5.6,5.6,6,5.2,6z"/></g>
<g transform="translate(456,720) scale(4.12)"><path d="M5.4,2.8C4.5,1.1,2.6-0.1,1.2,0c-1.3,0.1-1.6,1.6-0.7,3.2c1,1.7,2.8,2.9,4.2,2.8C6.1,5.9,6.4,4.4,5.4,2.8z"/></g>
<g transform="translate(504,720) scale(4.12)"><path d="M5.4,2.8C4.5,1.1,2.6-0.1,1.2,0c-1.3,0.1-1.6,1.6-0.7,3.2c1,1.7,2.8,2.9,4.2,2.8C6.1,5.9,6.4,4.4,5.4,2.8z"/></g>
<g transform="translate(552,720) scale(4.12)"><path d="M0,5.2L0,5.2C0,3.8,4.6,0,6,0l0,0v6H0.8C0.4,6,0,5.6,0,5.2z"/></g>
<g transform="translate(576,720) scale(4.12)"><rect width="6" height="6"/></g>
<g transform="translate(600,720) scale(4.12)"><rect width="6" height="6"/></g>
<g transform="translate(624,720) scale(4.12)"><path d="M6,0.8L6,0.8C6,2.2,1.4,6,0,6l0,0V0h5.2C5.6,0,6,0.4,6,0.8z"/></g>
<g transform="translate(672,720) scale(4.12)"><path d="M5.4,2.8C4.5,1.1,2.6-0.1,1.2,0c-1.3,0.1-1.6,1.6-0.7,3.2c1,1.7,2.8,2.9,4.2,2.8C6.1,5.9,6.4,4.4,5.4,2.8z"/></g>
<g transform="translate(48,48)"><g transform="scale(12)"><path d="M0,0v14h14V0H0z M12,12H2V2h10V12z"/></g></g>
<g transform="translate(576,48)"><g transform="scale(12)"><path d="M0,0v14h14V0H0z M12,12H2V2h10V12z"/></g></g>
<g transform="translate(48,576)"><g transform="scale(12)"><path d="M0,0v14h14V0H0z M12,12H2V2h10V12z"/></g></g>
<g transform="translate(96,96)"><g transform="scale(12)"><rect width="6" height="6"/></g></g>
<g transform="translate(624,96)"><g transform="scale(12)"><rect width="6" height="6"/></g></g>
<g transform="translate(96,624)"><g transform="scale(12)"><rect width="6" height="6"/></g></g>
</g></svg>
